<svg width="28" height="28" viewBox="0 0 28 28" fill="none" xmlns="http://www.w3.org/2000/svg">
<circle cx="14" cy="14" r="14" fill="#2D2E32"/>
<path fill-rule="evenodd" clip-rule="evenodd" d="M9 19.7143H19V21.1429H9V19.7143ZM14 10.4286C13.2143 10.4286 12.5714 11.0715 12.5714 11.8572C12.5714 12.6429 13.2143 13.2857 14 13.2857C14.3789 13.2857 14.7422 13.1352 15.0102 12.8673C15.2781 12.5994 15.4286 12.2361 15.4286 11.8572C15.4286 11.4783 15.2781 11.1149 15.0102 10.847C14.7422 10.5791 14.3789 10.4286 14 10.4286ZM14 6.85718C16.3357 6.85718 19 8.61432 19 11.9643C19 14.1929 17.3357 16.5429 14 19C10.6643 16.5429 9 14.1929 9 11.9643C9 8.61432 11.6643 6.85718 14 6.85718Z" fill="#A3A4A9"/>
</svg>
