<svg width="32" height="38" viewBox="0 0 32 38" fill="none" xmlns="http://www.w3.org/2000/svg">
<path fill-rule="evenodd" clip-rule="evenodd" d="M18.9803 33.5551C19.281 32.9538 19.6363 32.1145 20.2841 31.9349C27.0404 30.0619 32 23.8676 32 16.5149C32 7.67834 24.8366 0.514893 16 0.514893C7.16344 0.514893 0 7.67834 0 16.5149C0 23.8679 4.96005 30.0624 11.7168 31.9351C12.3646 32.1147 12.7199 32.9539 13.0205 33.5551L14.7395 36.9931C15.259 38.0321 16.7418 38.0321 17.2613 36.9931L18.9803 33.5551Z" fill="#5B5D67"/>
<path d="M28.0001 16.5144C28.0001 23.1419 22.6275 28.5145 16 28.5145C9.3726 28.5145 4 23.1419 4 16.5144C4 9.887 9.3726 4.5144 16 4.5144C22.6275 4.5144 28.0001 9.887 28.0001 16.5144Z" fill="#232428"/>
<path d="M16 18.0149C16.8284 18.0149 17.5 17.3433 17.5 16.5149C17.5 15.6865 16.8284 15.0149 16 15.0149C15.1716 15.0149 14.5 15.6865 14.5 16.5149C14.5 17.3433 15.1716 18.0149 16 18.0149Z" fill="#F7F7FC"/>
<path d="M11.5 18.0149C12.3284 18.0149 13 17.3433 13 16.5149C13 15.6865 12.3284 15.0149 11.5 15.0149C10.6716 15.0149 10 15.6865 10 16.5149C10 17.3433 10.6716 18.0149 11.5 18.0149Z" fill="#F7F7FC"/>
<path d="M20.5 18.0149C21.3284 18.0149 22 17.3433 22 16.5149C22 15.6865 21.3284 15.0149 20.5 15.0149C19.6716 15.0149 19 15.6865 19 16.5149C19 17.3433 19.6716 18.0149 20.5 18.0149Z" fill="#F7F7FC"/>
</svg>
