<svg width="32" height="38" viewBox="0 0 32 38" fill="none" xmlns="http://www.w3.org/2000/svg">
<path fill-rule="evenodd" clip-rule="evenodd" d="M18.9803 33.07C19.281 32.4687 19.6363 31.6294 20.2841 31.4498C27.0404 29.5768 32 23.3825 32 16.0298C32 7.19323 24.8366 0.0297852 16 0.0297852C7.16344 0.0297852 0 7.19323 0 16.0298C0 23.3828 4.96005 29.5773 11.7168 31.45C12.3646 31.6296 12.7199 32.4688 13.0205 33.07L14.7395 36.508C15.259 37.547 16.7418 37.547 17.2613 36.508L18.9803 33.07Z" fill="#5B5D67"/>
<path d="M29 16.0298C29 23.2095 23.1797 29.0298 16 29.0298C8.8203 29.0298 3 23.2095 3 16.0298C3 8.85008 8.8203 3.02979 16 3.02979C23.1797 3.02979 29 8.85008 29 16.0298Z" fill="#232428"/>
<g clip-path="url(#clip0_1619_28882)">
<path d="M17.8 11.5298L17.62 10.6298C17.5525 10.2848 17.245 10.0298 16.885 10.0298H11.5C11.0875 10.0298 10.75 10.3673 10.75 10.7798V22.0298C10.75 22.4423 11.0875 22.7798 11.5 22.7798C11.9125 22.7798 12.25 22.4423 12.25 22.0298V17.5298H16.45L16.63 18.4298C16.6975 18.7823 17.005 19.0298 17.365 19.0298H21.25C21.6625 19.0298 22 18.6923 22 18.2798V12.2798C22 11.8673 21.6625 11.5298 21.25 11.5298H17.8Z" fill="#F7F7FC"/>
</g>
<defs>
<clipPath id="clip0_1619_28882">
<rect width="18" height="18" fill="white" transform="translate(7 7.02979)"/>
</clipPath>
</defs>
</svg>
