<svg width="32" height="39" viewBox="0 0 32 39" fill="none" xmlns="http://www.w3.org/2000/svg">
<path fill-rule="evenodd" clip-rule="evenodd" d="M18.9803 33.8126C19.281 33.2114 19.6363 32.372 20.2841 32.1925C27.0404 30.3194 32 24.1251 32 16.7725C32 7.9359 24.8366 0.772461 16 0.772461C7.16344 0.772461 0 7.9359 0 16.7725C0 24.1255 4.96005 30.32 11.7168 32.1927C12.3646 32.3722 12.7199 33.2114 13.0205 33.8126L14.7395 37.2507C15.259 38.2897 16.7418 38.2897 17.2613 37.2507L18.9803 33.8126Z" fill="#5B5D67"/>
<path d="M29 16.7725C29 23.9522 23.1797 29.7725 16 29.7725C8.8203 29.7725 3 23.9522 3 16.7725C3 9.59276 8.8203 3.77246 16 3.77246C23.1797 3.77246 29 9.59276 29 16.7725Z" fill="#232428"/>
<g clip-path="url(#clip0_1619_28874)">
<path d="M21.19 11.28C21.04 10.8375 20.62 10.5225 20.125 10.5225H11.875C11.38 10.5225 10.9675 10.8375 10.81 11.28L9.3325 15.5325C9.28 15.69 9.25 15.855 9.25 16.0275V21.3975C9.25 22.02 9.7525 22.5225 10.375 22.5225C10.9975 22.5225 11.5 22.02 11.5 21.3975V21.0225H20.5V21.3975C20.5 22.0125 21.0025 22.5225 21.625 22.5225C22.24 22.5225 22.75 22.02 22.75 21.3975V16.0275C22.75 15.8625 22.72 15.69 22.6675 15.5325L21.19 11.28ZM11.875 18.7725C11.2525 18.7725 10.75 18.27 10.75 17.6475C10.75 17.025 11.2525 16.5225 11.875 16.5225C12.4975 16.5225 13 17.025 13 17.6475C13 18.27 12.4975 18.7725 11.875 18.7725ZM20.125 18.7725C19.5025 18.7725 19 18.27 19 17.6475C19 17.025 19.5025 16.5225 20.125 16.5225C20.7475 16.5225 21.25 17.025 21.25 17.6475C21.25 18.27 20.7475 18.7725 20.125 18.7725ZM10.75 15.0225L11.7025 12.1575C11.8075 11.8575 12.0925 11.6475 12.415 11.6475H19.585C19.9075 11.6475 20.1925 11.8575 20.2975 12.1575L21.25 15.0225H10.75Z" fill="#F7F7FC"/>
</g>
<defs>
<clipPath id="clip0_1619_28874">
<rect width="18" height="18" fill="white" transform="translate(7 6.77246)"/>
</clipPath>
</defs>
</svg>
