<svg width="32" height="38" viewBox="0 0 32 38" fill="none" xmlns="http://www.w3.org/2000/svg">
<path fill-rule="evenodd" clip-rule="evenodd" d="M18.9803 33.0402C19.281 32.4389 19.6363 31.5996 20.2841 31.42C27.0404 29.547 32 23.3527 32 16C32 7.16344 24.8366 0 16 0C7.16344 0 0 7.16344 0 16C0 23.353 4.96005 29.5475 11.7168 31.4202C12.3646 31.5998 12.7199 32.439 13.0205 33.0402L14.7395 36.4782C15.259 37.5172 16.7418 37.5172 17.2613 36.4782L18.9803 33.0402Z" fill="#5B5D67"/>
<path d="M29 16C29 23.1797 23.1797 29 16 29C8.8203 29 3 23.1797 3 16C3 8.8203 8.8203 3 16 3C23.1797 3 29 8.8203 29 16Z" fill="#232428"/>
<g clip-path="url(#clip0_1619_28850)">
<path d="M17.875 16.4425L18.55 19.3525L16 17.815L13.45 19.3525L14.125 16.45L11.875 14.5075L14.845 14.2525L16 11.515L17.155 14.245L20.125 14.5L17.875 16.4425ZM9.25 10.75V15.25C9.25 19.4125 12.13 23.305 16 24.25C19.87 23.305 22.75 19.4125 22.75 15.25V10.75L16 7.75L9.25 10.75Z" fill="#F7F7FC"/>
</g>
<defs>
<clipPath id="clip0_1619_28850">
<rect width="18" height="18" fill="white" transform="translate(7 7)"/>
</clipPath>
</defs>
</svg>
