<svg width="19" height="19" viewBox="0 0 19 19" fill="none" xmlns="http://www.w3.org/2000/svg">
<path d="M11.813 2.62866C11.2504 2.62866 10.7943 2.18095 10.7943 1.62866C10.7943 1.07638 11.2504 0.628662 11.813 0.628662H17.9252C18.1953 0.628662 18.4544 0.734019 18.6455 0.921556C18.8365 1.10909 18.9439 1.36345 18.9438 1.62866L18.9438 7.62866C18.9438 8.18095 18.4878 8.62866 17.9252 8.62866C17.3625 8.62866 16.9065 8.18095 16.9065 7.62866L16.9065 4.04288L7.43989 13.3358C7.04207 13.7263 6.39707 13.7263 5.99924 13.3358C5.60142 12.9452 5.60142 12.3121 5.99924 11.9216L15.4658 2.62866H11.813ZM0.607422 4.62866C0.607422 3.52409 1.51959 2.62866 2.6448 2.62866H7.73826C8.30086 2.62866 8.75695 3.07638 8.75695 3.62866C8.75695 4.18095 8.30086 4.62866 7.73826 4.62866H2.6448V16.6287H14.8691V11.6287C14.8691 11.0764 15.3252 10.6287 15.8878 10.6287C16.4504 10.6287 16.9065 11.0764 16.9065 11.6287V16.6287C16.9065 17.7332 15.9943 18.6287 14.8691 18.6287H2.6448C1.51959 18.6287 0.607422 17.7332 0.607422 16.6287V4.62866Z" fill="#A3A4A9"/>
</svg>
