<svg width="20" height="20" viewBox="0 0 20 20" fill="none" xmlns="http://www.w3.org/2000/svg">
<circle cx="10" cy="10" r="9" fill="#A74848" stroke="#2E2F34" stroke-width="2"/>
<g clip-path="url(#clip0_1632_30806)">
<path d="M16 10C16 13.3137 13.3137 16 10 16C6.68667 16 4 13.3137 4 10C4 6.68667 6.68667 4 10 4C13.3137 4 16 6.68667 16 10Z" fill="url(#paint0_linear_1632_30806)"/>
<path d="M12.4947 13.9597C12.4797 13.9 12.1053 12.5 9.99967 12.5C7.89367 12.5 7.51967 13.9 7.50467 13.9597C7.48633 14.032 7.519 14.107 7.58367 14.1443C7.64867 14.1807 7.73 14.1707 7.78367 14.1187C7.79 14.1123 8.435 13.5 9.99967 13.5C11.5643 13.5 12.2097 14.1123 12.2157 14.1183C12.2477 14.15 12.2903 14.1667 12.333 14.1667C12.361 14.1667 12.3893 14.1597 12.415 14.1453C12.4803 14.108 12.513 14.0323 12.4947 13.9597ZM9.23533 9.76432C8.15033 8.67932 6.40667 8.66666 6.333 8.66666C6.149 8.66666 6 8.81566 6 8.99932C5.99967 9.18332 6.14867 9.33266 6.33267 9.33332C6.34233 9.33332 6.97433 9.34066 7.66033 9.57899C7.46267 9.79232 7.333 10.1237 7.333 10.5C7.333 11.1447 7.706 11.6667 8.16633 11.6667C8.62667 11.6667 8.99967 11.1447 8.99967 10.5C8.99967 10.442 8.99333 10.3867 8.98733 10.331C8.99167 10.331 8.99567 10.3333 8.99967 10.3333C9.085 10.3333 9.17033 10.3007 9.23533 10.2357C9.36567 10.1053 9.36567 9.89466 9.23533 9.76432ZM13.6663 8.66666C13.5927 8.66666 11.8493 8.67932 10.764 9.76432C10.6337 9.89466 10.6337 10.1053 10.764 10.2357C10.829 10.3007 10.9143 10.3333 10.9997 10.3333C11.004 10.3333 11.0077 10.331 11.0117 10.331C11.0063 10.3867 10.9997 10.442 10.9997 10.5C10.9997 11.1447 11.3727 11.6667 11.833 11.6667C12.2933 11.6667 12.6663 11.1447 12.6663 10.5C12.6663 10.1237 12.5367 9.79232 12.339 9.57899C13.025 9.34066 13.657 9.33332 13.667 9.33332C13.8507 9.33266 13.9997 9.18332 13.9993 8.99932C13.999 8.81566 13.8503 8.66666 13.6663 8.66666Z" fill="#292F33"/>
</g>
<defs>
<linearGradient id="paint0_linear_1632_30806" x1="10" y1="4" x2="10" y2="16" gradientUnits="userSpaceOnUse">
<stop stop-color="#FF5A5A"/>
<stop offset="1" stop-color="#FE954E"/>
</linearGradient>
<clipPath id="clip0_1632_30806">
<rect width="12" height="12" fill="white" transform="translate(4 4)"/>
</clipPath>
</defs>
</svg>
