<svg width="27" height="27" viewBox="0 0 27 27" fill="none" xmlns="http://www.w3.org/2000/svg">
<g clip-path="url(#clip0_1619_14332)">
<g clip-path="url(#clip1_1619_14332)">
<path d="M19.9806 14.5866C20.0171 18.5137 23.4258 19.8206 23.4635 19.8373C23.4347 19.9294 22.9189 21.6997 21.6677 23.5282C20.5861 25.109 19.4635 26.6841 17.6951 26.7167C15.9575 26.7487 15.3988 25.6863 13.4122 25.6863C11.4263 25.6863 10.8055 26.6841 9.16065 26.7487C7.45372 26.8133 6.15392 25.0392 5.06332 23.4642C2.83483 20.2424 1.13179 14.3601 3.41854 10.3894C4.55454 8.41759 6.58467 7.16894 8.78819 7.13692C10.4643 7.10495 12.0464 8.26458 13.0711 8.26458C14.0951 8.26458 16.0177 6.87002 18.0388 7.07483C18.8849 7.11004 21.26 7.41661 22.7851 9.64896C22.6622 9.72513 19.9512 11.3034 19.9806 14.5866V14.5866ZM16.715 4.94331C17.6212 3.84637 18.2312 2.31933 18.0648 0.799927C16.7585 0.852426 15.179 1.67037 14.242 2.76671C13.4024 3.73757 12.667 5.29149 12.8654 6.78082C14.3214 6.89346 15.8087 6.04095 16.715 4.94331" fill="white"/>
</g>
</g>
<defs>
<clipPath id="clip0_1619_14332">
<rect width="26" height="26" fill="white" transform="translate(0.166748 0.799957)"/>
</clipPath>
<clipPath id="clip1_1619_14332">
<rect width="21.1302" height="26" fill="white" transform="translate(2.33337 0.799927)"/>
</clipPath>
</defs>
</svg>
