<svg width="27" height="27" viewBox="0 0 27 27" fill="none" xmlns="http://www.w3.org/2000/svg">
<g clip-path="url(#clip0_1619_14322)">
<path d="M26.8333 13.8811C26.834 11.3804 26.1218 8.93187 24.7814 6.82584C23.4409 4.71981 21.5283 3.04456 19.2703 1.99867C17.0123 0.952774 14.5035 0.580094 12.0414 0.924802C9.57923 1.26951 7.26695 2.31715 5.37861 3.94354C3.49028 5.56994 2.10508 7.70689 1.38719 10.1011C0.669308 12.4953 0.648847 15.0464 1.32823 17.4519C2.00762 19.8575 3.35837 22.0166 5.22037 23.6735C7.08237 25.3303 9.37754 26.4153 11.8338 26.8V17.6621H8.53574V13.8811H11.8338V11.0057C11.8338 7.7224 13.744 5.91833 16.7123 5.91833C17.6883 5.9321 18.662 6.01758 19.6256 6.17408V9.38823H18.0178C17.7357 9.34984 17.4486 9.37656 17.1782 9.46634C16.9079 9.55613 16.6614 9.70664 16.4575 9.90646C16.2536 10.1063 16.0975 10.3502 16.0012 10.6197C15.9049 10.8892 15.8708 11.1772 15.9015 11.4619V13.9088H19.5019L18.9316 17.6897H15.8671V26.8C18.9247 26.3127 21.709 24.7439 23.7193 22.3757C25.7296 20.0075 26.8338 16.9953 26.8333 13.8811Z" fill="#1977F3"/>
</g>
<defs>
<clipPath id="clip0_1619_14322">
<rect width="26" height="26" fill="white" transform="translate(0.833313 0.799957)"/>
</clipPath>
</defs>
</svg>
