<svg width="20" height="20" viewBox="0 0 20 20" fill="none" xmlns="http://www.w3.org/2000/svg">
<circle cx="10" cy="10" r="9" fill="#A79248" stroke="#2E2F34" stroke-width="2"/>
<g clip-path="url(#clip0_1632_30798)">
<path d="M16 10C16 13.3137 13.3137 16 10 16C6.68633 16 4 13.3137 4 10C4 6.68633 6.68633 4 10 4C13.3137 4 16 6.68633 16 10Z" fill="#FFCC4D"/>
<path d="M10 13.6667C10.5523 13.6667 11 13.1443 11 12.5C11 11.8557 10.5523 11.3333 10 11.3333C9.44772 11.3333 9 11.8557 9 12.5C9 13.1443 9.44772 13.6667 10 13.6667Z" fill="#664500"/>
<path d="M14.3333 7.66666C14.2317 7.66666 14.132 7.62066 14.0663 7.53332C13.1863 6.35966 12.046 6.33399 11.9977 6.33332C11.8143 6.33132 11.6663 6.18132 11.6673 5.99832C11.6683 5.81466 11.8163 5.66666 11.9997 5.66666C12.061 5.66666 13.512 5.68332 14.5997 7.13332C14.7103 7.28066 14.6803 7.48966 14.533 7.59999C14.473 7.64499 14.403 7.66666 14.3333 7.66666ZM5.66599 7.66666C5.59666 7.66666 5.52632 7.64499 5.46632 7.59999C5.31899 7.48966 5.28932 7.28066 5.39966 7.13332C6.48699 5.68332 7.93832 5.66666 7.99966 5.66666C8.18366 5.66666 8.33299 5.81599 8.33299 5.99999C8.33299 6.18366 8.18466 6.33266 8.00099 6.33332C7.94932 6.33399 6.81166 6.36199 5.93299 7.53332C5.86766 7.62066 5.76732 7.66666 5.66599 7.66666Z" fill="#664500"/>
<path d="M8.00033 9.99999C8.46056 9.99999 8.83366 9.47766 8.83366 8.83332C8.83366 8.18899 8.46056 7.66666 8.00033 7.66666C7.54009 7.66666 7.16699 8.18899 7.16699 8.83332C7.16699 9.47766 7.54009 9.99999 8.00033 9.99999Z" fill="#664500"/>
<path d="M12.0003 9.99999C12.4606 9.99999 12.8337 9.47766 12.8337 8.83332C12.8337 8.18899 12.4606 7.66666 12.0003 7.66666C11.5401 7.66666 11.167 8.18899 11.167 8.83332C11.167 9.47766 11.5401 9.99999 12.0003 9.99999Z" fill="#664500"/>
</g>
<defs>
<clipPath id="clip0_1632_30798">
<rect width="12" height="12" fill="white" transform="translate(4 4)"/>
</clipPath>
</defs>
</svg>
