<svg width="27" height="27" viewBox="0 0 27 27" fill="none" xmlns="http://www.w3.org/2000/svg">
<g clip-path="url(#clip0_1619_14325)">
<path d="M25.8925 14.0432C25.8925 12.978 25.8061 12.2006 25.619 11.3945H13.4554V16.2023H20.5952C20.4513 17.3972 19.6739 19.1965 17.9465 20.4056L17.9223 20.5666L21.7682 23.546L22.0347 23.5726C24.4818 21.3125 25.8925 17.9873 25.8925 14.0432Z" fill="#4285F4"/>
<path d="M13.4554 26.7105C16.9533 26.7105 19.8898 25.5589 22.0347 23.5724L17.9465 20.4055C16.8525 21.1684 15.3842 21.701 13.4554 21.701C10.0294 21.701 7.12169 19.4411 6.08516 16.3174L5.93323 16.3303L1.93419 19.4252L1.8819 19.5706C4.01231 23.8027 8.38835 26.7105 13.4554 26.7105Z" fill="#34A853"/>
<path d="M6.08514 16.3176C5.81164 15.5115 5.65336 14.6477 5.65336 13.7553C5.65336 12.8628 5.81164 11.9991 6.07075 11.193L6.0635 11.0213L2.01435 7.87671L1.88187 7.93972C1.00382 9.69591 0.5 11.668 0.5 13.7553C0.5 15.8425 1.00382 17.8146 1.88187 19.5708L6.08514 16.3176Z" fill="#FBBC05"/>
<path d="M13.4554 5.80929C15.8881 5.80929 17.529 6.86011 18.4647 7.73825L22.121 4.16832C19.8755 2.08107 16.9533 0.799927 13.4554 0.799927C8.38835 0.799927 4.01231 3.70766 1.8819 7.9397L6.07077 11.193C7.12169 8.06931 10.0294 5.80929 13.4554 5.80929Z" fill="#EB4335"/>
</g>
<defs>
<clipPath id="clip0_1619_14325">
<rect width="26" height="26" fill="white" transform="translate(0.5 0.799957)"/>
</clipPath>
</defs>
</svg>
