<svg width="24" height="24" viewBox="0 0 24 24" fill="none" xmlns="http://www.w3.org/2000/svg">
<g clip-path="url(#clip0_1619_23360)">
<path d="M12 24C18.6274 24 24 18.6274 24 12C24 5.37258 18.6274 0 12 0C5.37258 0 0 5.37258 0 12C0 18.6274 5.37258 24 12 24Z" fill="#FFCC4D"/>
<path d="M12.0003 14C9.58499 14 7.98233 13.7187 6.00033 13.3333C5.54766 13.246 4.66699 13.3333 4.66699 14.6667C4.66699 17.3333 7.73033 20.6667 12.0003 20.6667C16.2697 20.6667 19.3337 17.3333 19.3337 14.6667C19.3337 13.3333 18.453 13.2453 18.0003 13.3333C16.0183 13.7187 14.4157 14 12.0003 14Z" fill="#664500"/>
<path d="M6 14.6666C6 14.6666 8 15.3333 12 15.3333C16 15.3333 18 14.6666 18 14.6666C18 14.6666 16.6667 17.3333 12 17.3333C7.33333 17.3333 6 14.6666 6 14.6666Z" fill="white"/>
<path d="M7.99967 11.3333C8.92015 11.3333 9.66634 10.2886 9.66634 8.99996C9.66634 7.71129 8.92015 6.66663 7.99967 6.66663C7.0792 6.66663 6.33301 7.71129 6.33301 8.99996C6.33301 10.2886 7.0792 11.3333 7.99967 11.3333Z" fill="#664500"/>
<path d="M15.9997 11.3333C16.9201 11.3333 17.6663 10.2886 17.6663 8.99996C17.6663 7.71129 16.9201 6.66663 15.9997 6.66663C15.0792 6.66663 14.333 7.71129 14.333 8.99996C14.333 10.2886 15.0792 11.3333 15.9997 11.3333Z" fill="#664500"/>
</g>
<defs>
<clipPath id="clip0_1619_23360">
<rect width="24" height="24" fill="white"/>
</clipPath>
</defs>
</svg>
