<svg width="24" height="24" viewBox="0 0 24 24" fill="none" xmlns="http://www.w3.org/2000/svg">
<g clip-path="url(#clip0_1619_23361)">
<path d="M24 12C24 18.6273 18.6273 24 12 24C5.37267 24 0 18.6273 0 12C0 5.37267 5.37267 0 12 0C18.6273 0 24 5.37267 24 12Z" fill="#FFCC4D"/>
<path d="M12 19.3333C13.1046 19.3333 14 18.2886 14 17C14 15.7113 13.1046 14.6666 12 14.6666C10.8954 14.6666 10 15.7113 10 17C10 18.2886 10.8954 19.3333 12 19.3333Z" fill="#664500"/>
<path d="M20.6676 7.33337C20.4643 7.33337 20.265 7.24137 20.1336 7.06671C18.3736 4.71937 16.093 4.66804 15.9963 4.66671C15.6296 4.66271 15.3336 4.36271 15.3356 3.99671C15.3376 3.62937 15.6336 3.33337 16.0003 3.33337C16.123 3.33337 19.025 3.36671 21.2003 6.26671C21.4216 6.56137 21.3616 6.97937 21.067 7.20004C20.947 7.29004 20.807 7.33337 20.6676 7.33337ZM3.33296 7.33337C3.19429 7.33337 3.05363 7.29004 2.93363 7.20004C2.63896 6.97937 2.57963 6.56137 2.80029 6.26671C4.97496 3.36671 7.87763 3.33337 8.00029 3.33337C8.36829 3.33337 8.66696 3.63204 8.66696 4.00004C8.66696 4.36737 8.37029 4.66537 8.00296 4.66671C7.89963 4.66804 5.62429 4.72404 3.86696 7.06671C3.73629 7.24137 3.53563 7.33337 3.33296 7.33337Z" fill="#664500"/>
<path d="M7.99967 12C8.92015 12 9.66634 10.9554 9.66634 9.66671C9.66634 8.37804 8.92015 7.33337 7.99967 7.33337C7.0792 7.33337 6.33301 8.37804 6.33301 9.66671C6.33301 10.9554 7.0792 12 7.99967 12Z" fill="#664500"/>
<path d="M15.9997 12C16.9201 12 17.6663 10.9554 17.6663 9.66671C17.6663 8.37804 16.9201 7.33337 15.9997 7.33337C15.0792 7.33337 14.333 8.37804 14.333 9.66671C14.333 10.9554 15.0792 12 15.9997 12Z" fill="#664500"/>
</g>
<defs>
<clipPath id="clip0_1619_23361">
<rect width="24" height="24" fill="white"/>
</clipPath>
</defs>
</svg>
