<svg width="18" height="16" viewBox="0 0 18 16" fill="none" xmlns="http://www.w3.org/2000/svg">
<path d="M17.25 8L15.42 5.9075L15.675 3.14L12.9675 2.525L11.55 0.125L9 1.22L6.45 0.125L5.0325 2.5175L2.325 3.125L2.58 5.9L0.75 8L2.58 10.0925L2.325 12.8675L5.0325 13.4825L6.45 15.875L9 14.7725L11.55 15.8675L12.9675 13.475L15.675 12.86L15.42 10.0925L17.25 8ZM7.035 11.0075L5.25 9.2075C4.9575 8.915 4.9575 8.4425 5.25 8.15L5.3025 8.0975C5.595 7.805 6.075 7.805 6.3675 8.0975L7.575 9.3125L11.4375 5.4425C11.73 5.15 12.21 5.15 12.5025 5.4425L12.555 5.495C12.8475 5.7875 12.8475 6.26 12.555 6.5525L8.115 11.0075C7.8075 11.3 7.335 11.3 7.035 11.0075Z" fill="#A3A4A9"/>
</svg>
