<svg width="24" height="24" viewBox="0 0 24 24" fill="none" xmlns="http://www.w3.org/2000/svg">
<g clip-path="url(#clip0_1619_23362)">
<path d="M24 12C24 18.6273 18.6273 24 12 24C5.37333 24 0 18.6273 0 12C0 5.37333 5.37333 0 12 0C18.6273 0 24 5.37333 24 12Z" fill="url(#paint0_linear_1619_23362)"/>
<path d="M16.9903 19.9194C16.9603 19.8 16.2116 17 12.0003 17C7.78831 17 7.04031 19.8 7.01031 19.9194C6.97364 20.064 7.03898 20.214 7.16831 20.2887C7.29831 20.3614 7.46098 20.3414 7.56831 20.2374C7.58098 20.2247 8.87098 19 12.0003 19C15.1296 19 16.4203 20.2247 16.4323 20.2367C16.4963 20.3 16.5816 20.3334 16.667 20.3334C16.723 20.3334 16.7796 20.3194 16.831 20.2907C16.9616 20.216 17.027 20.0647 16.9903 19.9194ZM10.4716 11.5287C8.30164 9.35871 4.81431 9.33337 4.66698 9.33337C4.29898 9.33337 4.00098 9.63137 4.00098 9.99871C4.00031 10.3667 4.29831 10.6654 4.66631 10.6667C4.68564 10.6667 5.94964 10.6814 7.32164 11.158C6.92631 11.5847 6.66698 12.2474 6.66698 13C6.66698 14.2894 7.41298 15.3334 8.33364 15.3334C9.25431 15.3334 10.0003 14.2894 10.0003 13C10.0003 12.884 9.98764 12.7734 9.97564 12.662C9.98431 12.662 9.99231 12.6667 10.0003 12.6667C10.171 12.6667 10.3416 12.6014 10.4716 12.4714C10.7323 12.2107 10.7323 11.7894 10.4716 11.5287ZM19.3336 9.33337C19.1863 9.33337 15.6996 9.35871 13.529 11.5287C13.2683 11.7894 13.2683 12.2107 13.529 12.4714C13.659 12.6014 13.8296 12.6667 14.0003 12.6667C14.009 12.6667 14.0163 12.662 14.0243 12.662C14.0136 12.7734 14.0003 12.884 14.0003 13C14.0003 14.2894 14.7463 15.3334 15.667 15.3334C16.5876 15.3334 17.3336 14.2894 17.3336 13C17.3336 12.2474 17.0743 11.5847 16.679 11.158C18.051 10.6814 19.315 10.6667 19.335 10.6667C19.7023 10.6654 20.0003 10.3667 19.9996 9.99871C19.999 9.63137 19.7016 9.33337 19.3336 9.33337Z" fill="#292F33"/>
</g>
<defs>
<linearGradient id="paint0_linear_1619_23362" x1="12" y1="0" x2="12" y2="24" gradientUnits="userSpaceOnUse">
<stop stop-color="#FF5A5A"/>
<stop offset="1" stop-color="#FE954E"/>
</linearGradient>
<clipPath id="clip0_1619_23362">
<rect width="24" height="24" fill="white"/>
</clipPath>
</defs>
</svg>
