<svg width="21" height="20" viewBox="0 0 21 20" fill="none" xmlns="http://www.w3.org/2000/svg">
<path d="M10.146 2C5.78144 2 2.24326 5.58172 2.24326 10C2.24326 14.4183 5.78144 18 10.146 18C14.5106 18 18.0487 14.4183 18.0487 10C18.0487 5.58172 14.5106 2 10.146 2ZM0.267578 10C0.267578 4.47715 4.6903 0 10.146 0C15.6017 0 20.0244 4.47715 20.0244 10C20.0244 15.5228 15.6017 20 10.146 20C4.6903 20 0.267578 15.5228 0.267578 10ZM5.99004 5.79289C6.37582 5.40237 7.00128 5.40237 7.38706 5.79289L10.146 8.58579L12.9049 5.79289C13.2907 5.40237 13.9162 5.40237 14.302 5.79289C14.6877 6.18342 14.6877 6.81658 14.302 7.20711L11.543 10L14.302 12.7929C14.6877 13.1834 14.6877 13.8166 14.302 14.2071C13.9162 14.5976 13.2907 14.5976 12.9049 14.2071L10.146 11.4142L7.38706 14.2071C7.00128 14.5976 6.37582 14.5976 5.99004 14.2071C5.60426 13.8166 5.60426 13.1834 5.99004 12.7929L8.74898 10L5.99004 7.20711C5.60426 6.81658 5.60426 6.18342 5.99004 5.79289Z" fill="#A3A4A9"/>
</svg>
