<svg width="18" height="18" viewBox="0 0 18 18" fill="none" xmlns="http://www.w3.org/2000/svg">
<rect opacity="0.2" width="18" height="18" rx="4" fill="#4BD883"/>
<g clip-path="url(#clip0_1632_30769)">
<path d="M15.4163 9L13.993 7.3725L14.1913 5.22L12.0855 4.74167L10.983 2.875L8.99967 3.72667L7.01634 2.875L5.91384 4.73583L3.80801 5.20833L4.00634 7.36667L2.58301 9L4.00634 10.6275L3.80801 12.7858L5.91384 13.2642L7.01634 15.125L8.99967 14.2675L10.983 15.1192L12.0855 13.2583L14.1913 12.78L13.993 10.6275L15.4163 9ZM7.47134 11.3392L6.08301 9.93917C5.85551 9.71167 5.85551 9.34417 6.08301 9.11667L6.12384 9.07583C6.35134 8.84833 6.72467 8.84833 6.95217 9.07583L7.89134 10.0208L10.8955 7.01083C11.123 6.78333 11.4963 6.78333 11.7238 7.01083L11.7647 7.05167C11.9922 7.27917 11.9922 7.64667 11.7647 7.87417L8.31134 11.3392C8.07217 11.5667 7.70467 11.5667 7.47134 11.3392Z" fill="#4BD883"/>
</g>
<defs>
<clipPath id="clip0_1632_30769">
<rect width="14" height="14" fill="white" transform="translate(2 2)"/>
</clipPath>
</defs>
</svg>
