<svg width="14" height="16" viewBox="0 0 14 16" fill="none" xmlns="http://www.w3.org/2000/svg">
<path fill-rule="evenodd" clip-rule="evenodd" d="M0 3.21358V7.07721C0 11.0762 2.93155 14.8181 6.88866 15.7783C6.96169 15.796 7.03831 15.796 7.11134 15.7783C11.0684 14.8181 14 11.0762 14 7.07721V3.21358C14 2.93743 13.7772 2.70994 13.5022 2.68531C12.3964 2.5863 9.65222 2.14053 7.35714 0.133384C7.15378 -0.044461 6.84622 -0.0444613 6.64286 0.133383C4.34778 2.14053 1.60357 2.58631 0.497831 2.68531C0.222789 2.70994 0 2.93743 0 3.21358ZM7.47553 3.26803C7.32585 2.80737 6.67415 2.80737 6.52447 3.26803L5.76517 5.60491C5.69824 5.81092 5.50626 5.9504 5.28964 5.9504H2.8325C2.34814 5.9504 2.14675 6.57021 2.53861 6.85491L4.52648 8.29918C4.70172 8.42651 4.77505 8.65219 4.70812 8.8582L3.94882 11.1951C3.79914 11.6557 4.32638 12.0388 4.71824 11.7541L6.70611 10.3098C6.88135 10.1825 7.11865 10.1825 7.29389 10.3098L9.28176 11.7541C9.67362 12.0388 10.2009 11.6557 10.0512 11.1951L9.29188 8.8582C9.22495 8.65219 9.29828 8.4265 9.47352 8.29918L11.4614 6.85491C11.8532 6.57021 11.6519 5.9504 11.1675 5.9504H8.71036C8.49374 5.9504 8.30176 5.81092 8.23483 5.60491L7.47553 3.26803Z" fill="#F7F7FC"/>
</svg>
