<svg width="24" height="24" viewBox="0 0 24 24" fill="none" xmlns="http://www.w3.org/2000/svg">
<path d="M23.3043 11.944C23.3043 11.6086 23.2243 11.294 23.0903 11.008C22.1963 8.12398 18.011 8.33465 12.0577 8.19398C11.0623 8.17064 11.6317 6.99531 11.981 4.41531C12.2083 2.73731 11.1263 0.160645 9.30765 0.160645C6.30898 0.160645 9.19365 2.52598 6.54232 8.37531C5.12565 11.5006 1.95898 9.74998 1.95898 12.8893V20.0353C1.95898 21.2573 2.07898 22.432 3.79765 22.6253C5.46365 22.8126 5.08898 24 7.49232 24H19.5217C20.747 24 21.7437 23.0026 21.7437 21.7773C21.7437 21.2693 21.5657 20.8066 21.2783 20.432C21.9583 20.0513 22.425 19.3326 22.425 18.4993C22.425 17.9926 22.2477 17.53 21.961 17.156C22.643 16.776 23.111 16.0566 23.111 15.222C23.111 14.616 22.8657 14.0666 22.4703 13.6646C22.975 13.2573 23.3043 12.6413 23.3043 11.944Z" fill="#FFDB5E"/>
<path d="M15.347 14.166H21.083C21.863 14.166 22.595 13.7487 22.9937 13.0774C23.1577 12.8007 23.0663 12.4427 22.789 12.278C22.5123 12.1134 22.1543 12.206 21.9897 12.4827C21.801 12.802 21.4523 12.9994 21.0823 12.9994H15.209C14.627 12.9994 14.1537 12.526 14.1537 11.944C14.1537 11.362 14.627 10.8887 15.209 10.8887H19.1337C19.4557 10.8887 19.717 10.6274 19.717 10.3054C19.717 9.98338 19.4557 9.72205 19.1337 9.72205H15.2083C13.983 9.72205 12.9863 10.7187 12.9863 11.944C12.9863 12.6274 13.303 13.232 13.7897 13.64C13.3797 14.0434 13.1243 14.6034 13.1243 15.222C13.1243 15.9074 13.443 16.514 13.9323 16.9214C13.525 17.324 13.2723 17.882 13.2723 18.4994C13.2723 19.246 13.645 19.9047 14.2117 20.308C13.8623 20.7007 13.6437 21.212 13.6437 21.7774C13.6437 23.0027 14.6403 23.9994 15.8657 23.9994H19.5217C20.3017 23.9994 21.0343 23.5827 21.433 22.9114C21.5977 22.6347 21.5063 22.2767 21.2297 22.112C20.9523 21.9487 20.5943 22.0387 20.4303 22.3154C20.2403 22.6347 19.8917 22.8327 19.5217 22.8327H15.8657C15.2837 22.8327 14.8103 22.3594 14.8103 21.7774C14.8103 21.1954 15.2837 20.722 15.8657 20.722H20.203C20.983 20.722 21.7163 20.3047 22.1143 19.6334C22.279 19.356 22.1877 18.998 21.911 18.834C21.6317 18.6667 21.275 18.7607 21.1117 19.0374C20.919 19.362 20.579 19.5554 20.203 19.5554H15.4943C14.9123 19.5554 14.439 19.0814 14.439 18.4994C14.439 17.9174 14.9123 17.444 15.4943 17.444H20.8883C21.6683 17.444 22.401 17.0274 22.7997 16.356C22.9643 16.0794 22.873 15.7214 22.5963 15.5567C22.3183 15.3927 21.961 15.4834 21.797 15.76C21.6043 16.084 21.2643 16.2774 20.8883 16.2774H15.347C14.765 16.2774 14.2917 15.804 14.2917 15.222C14.2917 14.64 14.7643 14.166 15.347 14.166Z" fill="#EE9547"/>
</svg>
