<svg width="20" height="20" viewBox="0 0 20 20" fill="none" xmlns="http://www.w3.org/2000/svg">
<circle cx="10" cy="10" r="9" fill="#A79248" stroke="#2E2F34" stroke-width="2"/>
<g clip-path="url(#clip0_1632_30795)">
<path d="M15.6522 8.97199C15.6522 8.80432 15.6122 8.64699 15.5452 8.50399C15.0982 7.06199 13.0055 7.16732 10.0288 7.09699C9.53116 7.08532 9.81583 6.49766 9.99049 5.20766C10.1042 4.36866 9.56316 3.08032 8.65383 3.08032C7.15449 3.08032 8.59683 4.26299 7.27116 7.18766C6.56283 8.75032 4.97949 7.87499 4.97949 9.44466V13.0177C4.97949 13.6287 5.03949 14.216 5.89883 14.3127C6.73183 14.4063 6.54449 15 7.74616 15H13.7608C14.3735 15 14.8718 14.5013 14.8718 13.8887C14.8718 13.6347 14.7828 13.4033 14.6392 13.216C14.9792 13.0257 15.2125 12.6663 15.2125 12.2497C15.2125 11.9963 15.1238 11.765 14.9805 11.578C15.3215 11.388 15.5555 11.0283 15.5555 10.611C15.5555 10.308 15.4328 10.0333 15.2352 9.83232C15.4875 9.62866 15.6522 9.32066 15.6522 8.97199Z" fill="#FFDB5E"/>
<path d="M11.6735 10.083H14.5415C14.9315 10.083 15.2975 9.87433 15.4968 9.53866C15.5788 9.40033 15.5332 9.22133 15.3945 9.13899C15.2562 9.05666 15.0772 9.10299 14.9948 9.24133C14.9005 9.40099 14.7262 9.49966 14.5412 9.49966H11.6045C11.3135 9.49966 11.0768 9.26299 11.0768 8.97199C11.0768 8.68099 11.3135 8.44433 11.6045 8.44433H13.5668C13.7278 8.44433 13.8585 8.31366 13.8585 8.15266C13.8585 7.99166 13.7278 7.86099 13.5668 7.86099H11.6042C10.9915 7.86099 10.4932 8.35933 10.4932 8.97199C10.4932 9.31366 10.6515 9.61599 10.8948 9.81999C10.6898 10.0217 10.5622 10.3017 10.5622 10.611C10.5622 10.9537 10.7215 11.257 10.9662 11.4607C10.7625 11.662 10.6362 11.941 10.6362 12.2497C10.6362 12.623 10.8225 12.9523 11.1058 13.154C10.9312 13.3503 10.8218 13.606 10.8218 13.8887C10.8218 14.5013 11.3202 14.9997 11.9328 14.9997H13.7608C14.1508 14.9997 14.5172 14.7913 14.7165 14.4557C14.7988 14.3173 14.7532 14.1383 14.6148 14.056C14.4762 13.9743 14.2972 14.0193 14.2152 14.1577C14.1202 14.3173 13.9458 14.4163 13.7608 14.4163H11.9328C11.6418 14.4163 11.4052 14.1797 11.4052 13.8887C11.4052 13.5977 11.6418 13.361 11.9328 13.361H14.1015C14.4915 13.361 14.8582 13.1523 15.0572 12.8167C15.1395 12.678 15.0938 12.499 14.9555 12.417C14.8158 12.3333 14.6375 12.3803 14.5558 12.5187C14.4595 12.681 14.2895 12.7777 14.1015 12.7777H11.7472C11.4562 12.7777 11.2195 12.5407 11.2195 12.2497C11.2195 11.9587 11.4562 11.722 11.7472 11.722H14.4442C14.8342 11.722 15.2005 11.5137 15.3998 11.178C15.4822 11.0397 15.4365 10.8607 15.2982 10.7783C15.1592 10.6963 14.9805 10.7417 14.8985 10.88C14.8022 11.042 14.6322 11.1387 14.4442 11.1387H11.6735C11.3825 11.1387 11.1458 10.902 11.1458 10.611C11.1458 10.32 11.3822 10.083 11.6735 10.083Z" fill="#EE9547"/>
</g>
<defs>
<clipPath id="clip0_1632_30795">
<rect width="12" height="12" fill="white" transform="translate(4 3)"/>
</clipPath>
</defs>
</svg>
