<svg width="16" height="20" viewBox="0 0 16 20" fill="none" xmlns="http://www.w3.org/2000/svg">
<path d="M7.29289 0.292893C7.68342 -0.0976311 8.31658 -0.0976311 8.70711 0.292893L11.7071 3.29289C12.0976 3.68342 12.0976 4.31658 11.7071 4.70711C11.3166 5.09763 10.6834 5.09763 10.2929 4.70711L9 3.41421V13C9 13.5523 8.55228 14 8 14C7.44772 14 7 13.5523 7 13V3.41421L5.70711 4.70711C5.31658 5.09763 4.68342 5.09763 4.29289 4.70711C3.90237 4.31658 3.90237 3.68342 4.29289 3.29289L7.29289 0.292893ZM0 9C0 7.89543 0.895431 7 2 7H4C4.55228 7 5 7.44772 5 8C5 8.55228 4.55228 9 4 9H2V18H14V9H12C11.4477 9 11 8.55228 11 8C11 7.44772 11.4477 7 12 7H14C15.1046 7 16 7.89543 16 9V18C16 19.1046 15.1046 20 14 20H2C0.895431 20 0 19.1046 0 18V9Z" fill="#A3A4A9"/>
</svg>
