<svg width="18" height="18" viewBox="0 0 18 18" fill="none" xmlns="http://www.w3.org/2000/svg">
<rect opacity="0.2" width="18" height="18" rx="4" fill="#A3A4A9"/>
<g clip-path="url(#clip0_1619_28677)">
<path d="M15.4173 9L13.994 7.3725L14.1923 5.22L12.0865 4.74167L10.984 2.875L9.00065 3.72667L7.01732 2.875L5.91482 4.73583L3.80898 5.20833L4.00732 7.36667L2.58398 9L4.00732 10.6275L3.80898 12.7858L5.91482 13.2642L7.01732 15.125L9.00065 14.2675L10.984 15.1192L12.0865 13.2583L14.1923 12.78L13.994 10.6275L15.4173 9ZM7.47232 11.3392L6.08398 9.93917C5.85648 9.71167 5.85648 9.34417 6.08398 9.11667L6.12482 9.07583C6.35232 8.84833 6.72565 8.84833 6.95315 9.07583L7.89232 10.0208L10.8965 7.01083C11.124 6.78333 11.4973 6.78333 11.7248 7.01083L11.7657 7.05167C11.9932 7.27917 11.9932 7.64667 11.7657 7.87417L8.31232 11.3392C8.07315 11.5667 7.70565 11.5667 7.47232 11.3392Z" fill="#A3A4A9"/>
</g>
<defs>
<clipPath id="clip0_1619_28677">
<rect width="14" height="14" fill="white" transform="translate(2 2)"/>
</clipPath>
</defs>
</svg>
