<svg width="18" height="18" viewBox="0 0 18 18" fill="none" xmlns="http://www.w3.org/2000/svg">
<rect opacity="0.2" width="18" height="18" rx="4" fill="#A3A4A9"/>
<path d="M8.99935 4.33332C6.42202 4.33332 4.33268 6.42266 4.33268 8.99999C4.33268 11.5773 6.42202 13.6667 8.99935 13.6667C11.5767 13.6667 13.666 11.5773 13.666 8.99999C13.666 6.42266 11.5767 4.33332 8.99935 4.33332ZM3.16602 8.99999C3.16602 5.77833 5.77769 3.16666 8.99935 3.16666C12.221 3.16666 14.8327 5.77833 14.8327 8.99999C14.8327 12.2217 12.221 14.8333 8.99935 14.8333C5.77769 14.8333 3.16602 12.2217 3.16602 8.99999Z" fill="#A3A4A9"/>
<path d="M8.99935 10.1667C8.67718 10.1667 8.41602 9.90549 8.41602 9.58332L8.41602 6.08332C8.41602 5.76116 8.67718 5.49999 8.99935 5.49999C9.32152 5.49999 9.58268 5.76116 9.58268 6.08332L9.58268 9.58332C9.58268 9.90549 9.32152 10.1667 8.99935 10.1667Z" fill="#A3A4A9"/>
<path d="M8.12435 11.625C8.12435 11.1417 8.5161 10.75 8.99935 10.75C9.4826 10.75 9.87435 11.1417 9.87435 11.625C9.87435 12.1082 9.4826 12.5 8.99935 12.5C8.5161 12.5 8.12435 12.1082 8.12435 11.625Z" fill="#A3A4A9"/>
</svg>
