<svg width="22" height="20" viewBox="0 0 22 20" fill="none" xmlns="http://www.w3.org/2000/svg">
<path d="M10.9997 11.9999C10.4474 11.9999 9.99968 11.5522 9.99968 10.9999V7.99988C9.99968 7.4476 10.4474 6.99988 10.9997 6.99988C11.552 6.99988 11.9997 7.4476 11.9997 7.99988V10.9999C11.9997 11.5522 11.552 11.9999 10.9997 11.9999Z" fill="#A3A4A9"/>
<path d="M9.49968 14.4999C9.49968 13.6715 10.1713 12.9999 10.9997 12.9999C11.8281 12.9999 12.4997 13.6715 12.4997 14.4999C12.4997 15.3283 11.8281 15.9999 10.9997 15.9999C10.1713 15.9999 9.49968 15.3283 9.49968 14.4999Z" fill="#A3A4A9"/>
<path d="M9.22984 1.21548C9.97967 -0.209192 12.0197 -0.209201 12.7695 1.21548L21.1132 17.0684C21.8141 18.4002 20.8483 19.9999 19.3433 19.9999H2.65605C1.15103 19.9999 0.18525 18.4002 0.886209 17.0684L9.22984 1.21548ZM19.3433 17.9999L10.9997 2.14697L2.65605 17.9999L19.3433 17.9999Z" fill="#A3A4A9"/>
</svg>
