<svg width="18" height="18" viewBox="0 0 18 18" fill="none" xmlns="http://www.w3.org/2000/svg">
<rect opacity="0.2" width="18" height="18" rx="4" fill="#FFB84D"/>
<path d="M9.00033 4.33335C6.423 4.33335 4.33366 6.42269 4.33366 9.00002C4.33366 11.5774 6.423 13.6667 9.00033 13.6667C11.5777 13.6667 13.667 11.5774 13.667 9.00002C13.667 6.42269 11.5777 4.33335 9.00033 4.33335ZM3.16699 9.00002C3.16699 5.77836 5.77866 3.16669 9.00033 3.16669C12.222 3.16669 14.8337 5.77836 14.8337 9.00002C14.8337 12.2217 12.222 14.8334 9.00033 14.8334C5.77866 14.8334 3.16699 12.2217 3.16699 9.00002Z" fill="#FFB84D"/>
<path d="M9.00033 10.1667C8.67816 10.1667 8.41699 9.90552 8.41699 9.58335L8.41699 6.08335C8.41699 5.76119 8.67816 5.50002 9.00033 5.50002C9.32249 5.50002 9.58366 5.76119 9.58366 6.08335L9.58366 9.58335C9.58366 9.90552 9.32249 10.1667 9.00033 10.1667Z" fill="#FFB84D"/>
<path d="M8.12533 11.625C8.12533 11.1418 8.51708 10.75 9.00033 10.75C9.48358 10.75 9.87533 11.1418 9.87533 11.625C9.87533 12.1083 9.48358 12.5 9.00033 12.5C8.51708 12.5 8.12533 12.1083 8.12533 11.625Z" fill="#FFB84D"/>
</svg>
