<svg width="120" height="120" viewBox="0 0 120 120" fill="none" xmlns="http://www.w3.org/2000/svg">
<circle cx="60.0003" cy="59.9998" r="54.8429" stroke="#3C3C3C" stroke-width="3.99844"/>
<circle cx="60.3121" cy="60.0001" r="44.2105" fill="#525252"/>
<path fill-rule="evenodd" clip-rule="evenodd" d="M26.1699 90.1732C30.7644 88.0373 38.3473 84.6238 40.5066 84.084C42.9066 83.484 47.0066 82.334 48.7566 81.834C48.0066 80.084 46.0566 76.134 44.2566 74.334C42.0066 72.084 41.2566 65.334 41.2566 61.584C41.2566 57.834 40.5066 51.084 39.7566 47.334C39.0066 43.584 39.0066 36.084 41.2566 33.834C43.0566 32.034 44.5066 31.584 45.0066 31.584L43.5066 28.584C44.5066 28.834 46.8066 29.184 48.0066 28.584C48.4023 28.3862 48.8501 27.9274 49.3914 27.373C50.9023 25.8254 53.1414 23.5318 57.0066 24.084C60.6489 24.6043 65.3741 26.9297 68.6779 28.5555C70.1363 29.2732 71.3176 29.8546 72.0066 30.0842C72.5691 30.2717 73.1785 30.4592 73.7879 30.6467C75.616 31.2092 77.4441 31.7717 78.0066 32.3342C78.3302 32.6578 78.5142 33.5399 78.7393 34.6189C79.0359 36.0409 79.4038 37.805 80.2566 39.0842C81.7566 41.3342 81.7566 47.3342 81.7566 48.8342C81.7566 50.0342 80.7566 52.3342 80.2566 53.3342C81.0066 53.8342 82.3566 55.2842 81.7566 57.0842C81.4278 58.0707 80.9548 58.9131 80.5273 59.6744C79.9797 60.6496 79.5066 61.4919 79.5066 62.3342C79.5066 63.8342 78.7566 65.3342 78.0066 65.3342C77.2566 65.3342 76.5066 65.3342 75.7566 64.5842C75.3506 64.1782 75.1644 65.9704 74.96 67.9376C74.7868 69.6041 74.6006 71.3963 74.2566 72.0842C73.9702 72.6572 73.6837 73.1207 73.439 73.5166C73.0431 74.1572 72.7566 74.6207 72.7566 75.0842C72.7566 75.4592 72.9441 76.5842 73.1316 77.7092C73.3191 78.8342 73.5066 79.9592 73.5066 80.3342C73.5066 81.0842 75.0066 82.5842 76.5066 82.5842C77.7653 82.5842 89.5862 88.3934 93.3568 90.7056C85.1233 99.7921 73.2286 105.5 60.0008 105.5C46.5165 105.5 34.4174 99.5686 26.1699 90.1732Z" fill="#7A7A7A"/>
</svg>
