<svg width="95" height="87" viewBox="0 0 95 87" fill="none" xmlns="http://www.w3.org/2000/svg">
<path d="M1.92999 3.86C0.869993 3.86 0 3 0 1.93C0 0.87 0.859993 0 1.92999 0C2.99999 0 3.85999 0.86 3.85999 1.93C3.85999 2.99 2.98999 3.86 1.92999 3.86Z" fill="#5050CC"/>
<path d="M20.07 3.86C19.01 3.86 18.14 3 18.14 1.93C18.14 0.87 19 0 20.07 0C21.13 0 22 0.86 22 1.93C21.99 2.99 21.13 3.86 20.07 3.86Z" fill="#5050CC"/>
<path d="M38.2 3.86C37.14 3.86 36.27 3 36.27 1.93C36.27 0.87 37.13 0 38.2 0C39.26 0 40.13 0.86 40.13 1.93C40.13 2.99 39.27 3.86 38.2 3.86Z" fill="#5050CC"/>
<path d="M56.34 3.86C55.28 3.86 54.4099 3 54.4099 1.93C54.4099 0.87 55.27 0 56.34 0C57.4 0 58.27 0.86 58.27 1.93C58.27 2.99 57.4 3.86 56.34 3.86Z" fill="#5050CC"/>
<path d="M74.4701 3.86C73.4101 3.86 72.54 3 72.54 1.93C72.54 0.87 73.4001 0 74.4701 0C75.5301 0 76.4001 0.86 76.4001 1.93C76.4001 2.99 75.5401 3.86 74.4701 3.86Z" fill="#5050CC"/>
<path d="M92.6099 3.86C91.5499 3.86 90.6799 3 90.6799 1.93C90.6799 0.87 91.5399 0 92.6099 0C93.6799 0 94.5399 0.86 94.5399 1.93C94.5399 2.99 93.6699 3.86 92.6099 3.86Z" fill="#5050CC"/>
<path d="M1.92999 20.4C0.869993 20.4 0 19.54 0 18.47C0 17.41 0.859993 16.54 1.92999 16.54C2.99999 16.54 3.85999 17.4 3.85999 18.47C3.85999 19.53 2.98999 20.4 1.92999 20.4Z" fill="#5050CC"/>
<path d="M20.07 20.4C19.01 20.4 18.14 19.54 18.14 18.47C18.14 17.41 19 16.54 20.07 16.54C21.13 16.54 22 17.4 22 18.47C21.99 19.53 21.13 20.4 20.07 20.4Z" fill="#5050CC"/>
<path d="M38.2 20.4C37.14 20.4 36.27 19.54 36.27 18.47C36.27 17.41 37.13 16.54 38.2 16.54C39.26 16.54 40.13 17.4 40.13 18.47C40.13 19.53 39.27 20.4 38.2 20.4Z" fill="#5050CC"/>
<path d="M56.34 20.4C55.28 20.4 54.4099 19.54 54.4099 18.47C54.4099 17.41 55.27 16.54 56.34 16.54C57.4 16.54 58.27 17.4 58.27 18.47C58.27 19.53 57.4 20.4 56.34 20.4Z" fill="#5050CC"/>
<path d="M74.4701 20.4C73.4101 20.4 72.54 19.54 72.54 18.47C72.54 17.41 73.4001 16.54 74.4701 16.54C75.5301 16.54 76.4001 17.4 76.4001 18.47C76.4001 19.53 75.5401 20.4 74.4701 20.4Z" fill="#5050CC"/>
<path d="M92.6099 20.4C91.5499 20.4 90.6799 19.54 90.6799 18.47C90.6799 17.41 91.5399 16.54 92.6099 16.54C93.6799 16.54 94.5399 17.4 94.5399 18.47C94.5399 19.53 93.6699 20.4 92.6099 20.4Z" fill="#5050CC"/>
<path d="M1.92999 36.93C0.869993 36.93 0 36.07 0 35C0 33.94 0.859993 33.07 1.92999 33.07C2.99999 33.07 3.85999 33.93 3.85999 35C3.85999 36.07 2.98999 36.93 1.92999 36.93Z" fill="#5050CC"/>
<path d="M20.07 36.93C19.01 36.93 18.14 36.07 18.14 35C18.14 33.94 19 33.07 20.07 33.07C21.13 33.07 22 33.93 22 35C21.99 36.07 21.13 36.93 20.07 36.93Z" fill="#5050CC"/>
<path d="M38.2 36.93C37.14 36.93 36.27 36.07 36.27 35C36.27 33.94 37.13 33.07 38.2 33.07C39.26 33.07 40.13 33.93 40.13 35C40.13 36.07 39.27 36.93 38.2 36.93Z" fill="#5050CC"/>
<path d="M56.34 36.93C55.28 36.93 54.4099 36.07 54.4099 35C54.4099 33.94 55.27 33.07 56.34 33.07C57.4 33.07 58.27 33.93 58.27 35C58.27 36.07 57.4 36.93 56.34 36.93Z" fill="#5050CC"/>
<path d="M74.4701 36.93C73.4101 36.93 72.54 36.07 72.54 35C72.54 33.94 73.4001 33.07 74.4701 33.07C75.5301 33.07 76.4001 33.93 76.4001 35C76.4001 36.07 75.5401 36.93 74.4701 36.93Z" fill="#5050CC"/>
<path d="M92.6099 36.93C91.5499 36.93 90.6799 36.07 90.6799 35C90.6799 33.94 91.5399 33.07 92.6099 33.07C93.6799 33.07 94.5399 33.93 94.5399 35C94.5399 36.07 93.6699 36.93 92.6099 36.93Z" fill="#5050CC"/>
<path d="M1.92999 53.47C0.869993 53.47 0 52.61 0 51.54C0 50.48 0.859993 49.61 1.92999 49.61C2.99999 49.61 3.85999 50.47 3.85999 51.54C3.85999 52.6 2.98999 53.47 1.92999 53.47Z" fill="#5050CC"/>
<path d="M20.07 53.47C19.01 53.47 18.14 52.61 18.14 51.54C18.14 50.48 19 49.61 20.07 49.61C21.13 49.61 22 50.47 22 51.54C21.99 52.6 21.13 53.47 20.07 53.47Z" fill="#5050CC"/>
<path d="M38.2 53.47C37.14 53.47 36.27 52.61 36.27 51.54C36.27 50.48 37.13 49.61 38.2 49.61C39.26 49.61 40.13 50.47 40.13 51.54C40.13 52.6 39.27 53.47 38.2 53.47Z" fill="#5050CC"/>
<path d="M56.34 53.47C55.28 53.47 54.4099 52.61 54.4099 51.54C54.4099 50.48 55.27 49.61 56.34 49.61C57.4 49.61 58.27 50.47 58.27 51.54C58.27 52.6 57.4 53.47 56.34 53.47Z" fill="#5050CC"/>
<path d="M74.4701 53.47C73.4101 53.47 72.54 52.61 72.54 51.54C72.54 50.48 73.4001 49.61 74.4701 49.61C75.5301 49.61 76.4001 50.47 76.4001 51.54C76.4001 52.6 75.5401 53.47 74.4701 53.47Z" fill="#5050CC"/>
<path d="M92.6099 53.47C91.5499 53.47 90.6799 52.61 90.6799 51.54C90.6799 50.48 91.5399 49.61 92.6099 49.61C93.6799 49.61 94.5399 50.47 94.5399 51.54C94.5399 52.6 93.6699 53.47 92.6099 53.47Z" fill="#5050CC"/>
<path d="M1.92999 70.01C0.869993 70.01 0 69.15 0 68.08C0 67.02 0.859993 66.15 1.92999 66.15C2.99999 66.15 3.85999 67.01 3.85999 68.08C3.85999 69.14 2.98999 70.01 1.92999 70.01Z" fill="#5050CC"/>
<path d="M20.07 70.01C19.01 70.01 18.14 69.15 18.14 68.08C18.14 67.02 19 66.15 20.07 66.15C21.13 66.15 22 67.01 22 68.08C21.99 69.14 21.13 70.01 20.07 70.01Z" fill="#5050CC"/>
<path d="M38.2 70.01C37.14 70.01 36.27 69.15 36.27 68.08C36.27 67.02 37.13 66.15 38.2 66.15C39.26 66.15 40.13 67.01 40.13 68.08C40.13 69.14 39.27 70.01 38.2 70.01Z" fill="#5050CC"/>
<path d="M56.34 70.01C55.28 70.01 54.4099 69.15 54.4099 68.08C54.4099 67.02 55.27 66.15 56.34 66.15C57.4 66.15 58.27 67.01 58.27 68.08C58.27 69.14 57.4 70.01 56.34 70.01Z" fill="#5050CC"/>
<path d="M74.4701 70.01C73.4101 70.01 72.54 69.15 72.54 68.08C72.54 67.02 73.4001 66.15 74.4701 66.15C75.5301 66.15 76.4001 67.01 76.4001 68.08C76.4001 69.14 75.5401 70.01 74.4701 70.01Z" fill="#5050CC"/>
<path d="M92.6099 70.01C91.5499 70.01 90.6799 69.15 90.6799 68.08C90.6799 67.02 91.5399 66.15 92.6099 66.15C93.6799 66.15 94.5399 67.01 94.5399 68.08C94.5399 69.14 93.6699 70.01 92.6099 70.01Z" fill="#5050CC"/>
<path d="M1.92999 86.54C0.869993 86.54 0 85.68 0 84.61C0 83.55 0.859993 82.68 1.92999 82.68C2.99999 82.68 3.85999 83.54 3.85999 84.61C3.85999 85.68 2.98999 86.54 1.92999 86.54Z" fill="#5050CC"/>
<path d="M20.07 86.54C19.01 86.54 18.14 85.68 18.14 84.61C18.14 83.55 19 82.68 20.07 82.68C21.13 82.68 22 83.54 22 84.61C21.99 85.68 21.13 86.54 20.07 86.54Z" fill="#5050CC"/>
<path d="M38.2 86.54C37.14 86.54 36.27 85.68 36.27 84.61C36.27 83.55 37.13 82.68 38.2 82.68C39.26 82.68 40.13 83.54 40.13 84.61C40.13 85.68 39.27 86.54 38.2 86.54Z" fill="#5050CC"/>
<path d="M56.34 86.54C55.28 86.54 54.4099 85.68 54.4099 84.61C54.4099 83.55 55.27 82.68 56.34 82.68C57.4 82.68 58.27 83.54 58.27 84.61C58.27 85.68 57.4 86.54 56.34 86.54Z" fill="#5050CC"/>
<path d="M74.4701 86.54C73.4101 86.54 72.54 85.68 72.54 84.61C72.54 83.55 73.4001 82.68 74.4701 82.68C75.5301 82.68 76.4001 83.54 76.4001 84.61C76.4001 85.68 75.5401 86.54 74.4701 86.54Z" fill="#5050CC"/>
<path d="M92.6099 86.54C91.5499 86.54 90.6799 85.68 90.6799 84.61C90.6799 83.55 91.5399 82.68 92.6099 82.68C93.6799 82.68 94.5399 83.54 94.5399 84.61C94.5399 85.68 93.6699 86.54 92.6099 86.54Z" fill="#5050CC"/>
</svg>
