<svg width="41" height="40" viewBox="0 0 41 40" fill="none" xmlns="http://www.w3.org/2000/svg">
<circle opacity="0.8" cx="20.5" cy="20" r="20" fill="#232428"/>
<path d="M24.2929 10.2929C24.6834 9.90237 25.3166 9.90237 25.7071 10.2929L29.7071 14.2929C30.0976 14.6834 30.0976 15.3166 29.7071 15.7071L16.7071 28.7071C16.5196 28.8946 16.2652 29 16 29H12C11.4477 29 11 28.5523 11 28V24C11 23.7348 11.1054 23.4804 11.2929 23.2929L21.2927 13.2931L24.2929 10.2929ZM22 15.4142L13 24.4142V27H15.5858L24.5858 18L22 15.4142ZM26 16.5858L27.5858 15L25 12.4142L23.4142 14L26 16.5858Z" fill="#F7F7FC"/>
</svg>
