<svg width="139" height="40" viewBox="0 0 139 40" fill="none" xmlns="http://www.w3.org/2000/svg">
<path fill-rule="evenodd" clip-rule="evenodd" d="M19.8661 34.9518C19.9741 34.7668 20.1585 34.6392 20.3685 34.5972C28.1579 33.0392 34.0266 26.1623 34.0266 17.9147C34.0266 8.51848 26.4095 0.901367 17.0133 0.901367C7.61712 0.901367 0 8.51848 0 17.9147C0 26.1619 5.86815 33.0385 13.6569 34.597C13.8669 34.639 14.0513 34.7666 14.1592 34.9516L16.3596 38.7237C16.6514 39.2239 17.3741 39.2239 17.6659 38.7237L19.8661 34.9518Z" fill="url(#paint0_linear_1619_15141)"/>
<g filter="url(#filter0_d_1619_15141)">
<path d="M17.0135 29.6232C23.4864 29.6232 28.7338 24.3758 28.7338 17.9029C28.7338 11.43 23.4864 6.18262 17.0135 6.18262C10.5406 6.18262 5.29321 11.43 5.29321 17.9029C5.29321 20.3882 6.06677 22.6928 7.38625 24.5891L6.6439 27.41C6.51148 27.9132 6.97068 28.3724 7.47387 28.24L10.2846 27.5003C12.189 28.8379 14.5095 29.6232 17.0135 29.6232Z" fill="#232428"/>
</g>
<ellipse cx="12.8544" cy="17.9146" rx="1.32326" ry="1.32326" fill="#F7F7FC"/>
<ellipse cx="17.0139" cy="17.9146" rx="1.32326" ry="1.32326" fill="#F7F7FC"/>
<ellipse cx="21.1734" cy="17.9146" rx="1.32326" ry="1.32326" fill="#F7F7FC"/>
<path d="M55.2979 17.7594C55.2979 18.8701 54.9161 19.7956 54.1525 20.536C53.4016 21.2637 52.2498 21.6276 50.697 21.6276H48.1389V25.4627C48.1389 26.4222 47.3611 27.2 46.4016 27.2V13.853H50.697C52.1989 13.853 53.3379 14.2168 54.1143 14.9445C54.9034 15.6722 55.2979 16.6105 55.2979 17.7594ZM50.697 20.1914C51.6643 20.1914 52.377 19.9807 52.8352 19.5594C53.2934 19.1382 53.5225 18.5382 53.5225 17.7594C53.5225 16.1126 52.5807 15.2892 50.697 15.2892H48.1389V20.1914H50.697Z" fill="#F7F7FC"/>
<path d="M57.9726 15.0019C57.6417 15.0019 57.3617 14.887 57.1326 14.6573C56.9035 14.4275 56.789 14.1466 56.789 13.8147C56.789 13.4828 56.9035 13.2019 57.1326 12.9721C57.3617 12.7423 57.6417 12.6274 57.9726 12.6274C58.2908 12.6274 58.558 12.7423 58.7744 12.9721C59.0035 13.2019 59.118 13.4828 59.118 13.8147C59.118 14.1466 59.0035 14.4275 58.7744 14.6573C58.558 14.887 58.2908 15.0019 57.9726 15.0019ZM58.8126 16.7062V27.2H57.0753V16.7062H58.8126Z" fill="#F7F7FC"/>
<path d="M66.4889 16.5147C67.7616 16.5147 68.7925 16.9041 69.5816 17.6828C70.3707 18.4488 70.7652 19.5594 70.7652 21.0148V27.2H69.047V21.2637C69.047 20.2169 68.7861 19.419 68.2643 18.8701C67.7425 18.3084 67.0298 18.0275 66.1262 18.0275C65.2098 18.0275 64.478 18.3147 63.9307 18.8892C63.3962 19.4637 63.1289 20.2999 63.1289 21.3978V27.2H61.3916V16.7062H63.1289V18.1999C63.4725 17.6637 63.9371 17.2488 64.5225 16.9552C65.1207 16.6615 65.7762 16.5147 66.4889 16.5147Z" fill="#F7F7FC"/>
<path d="M72.5721 21.9339C72.5721 20.8488 72.7885 19.9041 73.2212 19.0999C73.654 18.2828 74.2521 17.6509 75.0158 17.2041C75.7921 16.7573 76.6767 16.5339 77.6694 16.5339C78.9548 16.5339 80.0112 16.8466 80.8385 17.4722C81.6785 18.0977 82.2321 18.9658 82.4994 20.0765H80.6285C80.4503 19.4382 80.1003 18.9339 79.5785 18.5637C79.0694 18.1935 78.433 18.0084 77.6694 18.0084C76.6767 18.0084 75.8749 18.353 75.2639 19.0424C74.653 19.719 74.3476 20.6829 74.3476 21.9339C74.3476 23.1978 74.653 24.1744 75.2639 24.8638C75.8749 25.5531 76.6767 25.8978 77.6694 25.8978C78.433 25.8978 79.0694 25.7191 79.5785 25.3616C80.0876 25.0042 80.4376 24.4935 80.6285 23.8297H82.4994C82.2194 24.9021 81.6594 25.7638 80.8194 26.4148C79.9794 27.0531 78.9294 27.3723 77.6694 27.3723C76.6767 27.3723 75.7921 27.1489 75.0158 26.7021C74.2521 26.2553 73.654 25.6233 73.2212 24.8063C72.7885 23.9893 72.5721 23.0318 72.5721 21.9339Z" fill="#F7F7FC"/>
<path d="M85.3329 15.0019C85.0019 15.0019 84.722 14.887 84.4929 14.6573C84.2638 14.4275 84.1492 14.1466 84.1492 13.8147C84.1492 13.4828 84.2638 13.2019 84.4929 12.9721C84.722 12.7423 85.0019 12.6274 85.3329 12.6274C85.651 12.6274 85.9183 12.7423 86.1347 12.9721C86.3638 13.2019 86.4783 13.4828 86.4783 13.8147C86.4783 14.1466 86.3638 14.4275 86.1347 14.6573C85.9183 14.887 85.651 15.0019 85.3329 15.0019ZM86.1729 16.7062V27.2H84.4356V16.7062H86.1729Z" fill="#F7F7FC"/>
<path d="M88.1028 21.9148C88.1028 20.8424 88.3192 19.9041 88.7519 19.0999C89.1846 18.2828 89.7764 17.6509 90.5273 17.2041C91.291 16.7573 92.1437 16.5339 93.0855 16.5339C93.9001 16.5339 94.6573 16.7254 95.3573 17.1083C96.0573 17.4786 96.5919 17.9701 96.961 18.5828V14.7859C96.961 13.8159 97.7473 13.0296 98.7173 13.0296V27.2H96.961V25.2276C96.6173 25.8531 96.1082 26.3702 95.4337 26.7787C94.7591 27.1744 93.9701 27.3723 93.0664 27.3723C92.1373 27.3723 91.291 27.1425 90.5273 26.6829C89.7764 26.2234 89.1846 25.5787 88.7519 24.7489C88.3192 23.9191 88.1028 22.9744 88.1028 21.9148ZM96.961 21.9339C96.961 21.1424 96.8019 20.4531 96.4837 19.8658C96.1655 19.2786 95.7328 18.8318 95.1855 18.5254C94.651 18.2062 94.0592 18.0467 93.4101 18.0467C92.761 18.0467 92.1692 18.1998 91.6346 18.5062C91.1001 18.8126 90.6737 19.2594 90.3555 19.8467C90.0373 20.4339 89.8783 21.1233 89.8783 21.9148C89.8783 22.7191 90.0373 23.4212 90.3555 24.0212C90.6737 24.6084 91.1001 25.0616 91.6346 25.3808C92.1692 25.6872 92.761 25.8404 93.4101 25.8404C94.0592 25.8404 94.651 25.6872 95.1855 25.3808C95.7328 25.0616 96.1655 24.6084 96.4837 24.0212C96.8019 23.4212 96.961 22.7254 96.961 21.9339Z" fill="#F7F7FC"/>
<path d="M110.817 21.551C110.817 21.8829 110.798 22.2339 110.759 22.6042H102.398C102.461 23.6382 102.811 24.4489 103.448 25.0361C104.097 25.6106 104.879 25.8978 105.796 25.8978C106.547 25.8978 107.17 25.7255 107.667 25.3808C108.176 25.0233 108.532 24.551 108.736 23.9637H110.607C110.327 24.9723 109.767 25.7957 108.927 26.434C108.087 27.0595 107.043 27.3723 105.796 27.3723C104.803 27.3723 103.912 27.1489 103.123 26.7021C102.347 26.2553 101.736 25.6233 101.29 24.8063C100.845 23.9765 100.622 23.0191 100.622 21.9339C100.622 20.8488 100.839 19.8977 101.271 19.0807C101.704 18.2637 102.309 17.6381 103.085 17.2041C103.874 16.7573 104.778 16.5339 105.796 16.5339C106.789 16.5339 107.667 16.7509 108.43 17.1849C109.194 17.619 109.779 18.219 110.187 18.985C110.607 19.7382 110.817 20.5935 110.817 21.551ZM109.022 21.1871C109.022 20.5233 108.876 19.9552 108.583 19.4828C108.29 18.9977 107.889 18.6339 107.38 18.3913C106.884 18.136 106.33 18.0084 105.719 18.0084C104.841 18.0084 104.09 18.2892 103.467 18.8509C102.856 19.4126 102.506 20.1914 102.417 21.1871H109.022Z" fill="#F7F7FC"/>
<path d="M117.825 16.5147C119.098 16.5147 120.129 16.9041 120.918 17.6828C121.707 18.4488 122.102 19.5594 122.102 21.0148V27.2H120.383V21.2637C120.383 20.2169 120.123 19.419 119.601 18.8701C119.079 18.3084 118.366 18.0275 117.463 18.0275C116.546 18.0275 115.814 18.3147 115.267 18.8892C114.733 19.4637 114.465 20.2999 114.465 21.3978V27.2H112.728V16.7062H114.465V18.1999C114.809 17.6637 115.273 17.2488 115.859 16.9552C116.457 16.6615 117.113 16.5147 117.825 16.5147Z" fill="#F7F7FC"/>
<path d="M126.677 18.1424V24.3276C126.677 24.8382 126.785 25.2021 127.001 25.4191C127.218 25.6233 127.593 25.7255 128.128 25.7255H129.407V27.2H127.841C126.874 27.2 126.149 26.9766 125.665 26.5297C125.181 26.0829 124.939 25.3489 124.939 24.3276V18.1424H123.584V16.7062H124.939V14.0636H126.677V16.7062H129.407V18.1424H126.677Z" fill="#F7F7FC"/>
<path d="M134.833 27.3723C134.032 27.3723 133.313 27.2383 132.676 26.9702C132.04 26.6893 131.537 26.3063 131.168 25.8212C130.799 25.3233 130.595 24.7552 130.557 24.1169H132.352C132.403 24.6404 132.644 25.068 133.077 25.3999C133.523 25.7319 134.102 25.8978 134.814 25.8978C135.476 25.8978 135.998 25.751 136.38 25.4574C136.762 25.1638 136.952 24.7935 136.952 24.3467C136.952 23.8872 136.749 23.5489 136.342 23.3318C135.934 23.102 135.304 22.8786 134.452 22.6616C133.675 22.4573 133.039 22.2531 132.543 22.0488C132.059 21.8318 131.639 21.519 131.283 21.1105C130.939 20.6892 130.767 20.1403 130.767 19.4637C130.767 18.9275 130.926 18.436 131.244 17.9892C131.563 17.5424 132.014 17.1913 132.6 16.936C133.185 16.6679 133.853 16.5339 134.604 16.5339C135.763 16.5339 136.698 16.8275 137.411 17.4147C138.123 18.002 138.505 18.8062 138.556 19.8275H136.819C136.781 19.2786 136.558 18.8382 136.151 18.5062C135.756 18.1743 135.222 18.0084 134.547 18.0084C133.923 18.0084 133.427 18.1424 133.058 18.4105C132.689 18.6786 132.504 19.0296 132.504 19.4637C132.504 19.8084 132.613 20.0956 132.829 20.3254C133.058 20.5424 133.338 20.7212 133.669 20.8616C134.013 20.9892 134.483 21.1361 135.082 21.302C135.833 21.5063 136.443 21.7105 136.914 21.9148C137.385 22.1063 137.786 22.3999 138.117 22.7957C138.461 23.1914 138.639 23.7084 138.652 24.3467C138.652 24.9212 138.492 25.4382 138.174 25.8978C137.856 26.3574 137.404 26.7212 136.819 26.9893C136.246 27.2446 135.584 27.3723 134.833 27.3723Z" fill="#F7F7FC"/>
<defs>
<filter id="filter0_d_1619_15141" x="3.84135" y="4.93817" width="26.7591" height="26.759" filterUnits="userSpaceOnUse" color-interpolation-filters="sRGB">
<feFlood flood-opacity="0" result="BackgroundImageFix"/>
<feColorMatrix in="SourceAlpha" type="matrix" values="0 0 0 0 0 0 0 0 0 0 0 0 0 0 0 0 0 0 127 0" result="hardAlpha"/>
<feOffset dx="0.207409" dy="0.414817"/>
<feGaussianBlur stdDeviation="0.829634"/>
<feComposite in2="hardAlpha" operator="out"/>
<feColorMatrix type="matrix" values="0 0 0 0 0 0 0 0 0 0 0 0 0 0 0 0 0 0 0.15 0"/>
<feBlend mode="normal" in2="BackgroundImageFix" result="effect1_dropShadow_1619_15141"/>
<feBlend mode="normal" in="SourceGraphic" in2="effect1_dropShadow_1619_15141" result="shape"/>
</filter>
<linearGradient id="paint0_linear_1619_15141" x1="0" y1="39.0988" x2="34.0266" y2="39.0988" gradientUnits="userSpaceOnUse">
<stop stop-color="#6464FF"/>
<stop offset="1" stop-color="#F27887"/>
</linearGradient>
</defs>
</svg>
