<svg width="197" height="32" viewBox="0 0 197 32" fill="none" xmlns="http://www.w3.org/2000/svg">
<path d="M19.7245 11.4592C19.7245 13.8093 18.9166 15.7678 17.3008 17.3345C15.7119 18.8743 13.2747 19.6441 9.98912 19.6441H4.57606V27.7593C4.57606 29.7895 2.93024 31.4353 0.900024 31.4353V31.4353V3.19322H9.98912C13.1669 3.19322 15.5772 3.96309 17.22 5.50283C18.8897 7.04257 19.7245 9.02803 19.7245 11.4592ZM9.98912 16.6052C12.0358 16.6052 13.544 16.1595 14.5135 15.268C15.483 14.3766 15.9677 13.107 15.9677 11.4592C15.9677 7.97452 13.9749 6.23218 9.98912 6.23218H4.57606V16.6052H9.98912Z" fill="url(#paint0_linear_8202_528)"/>
<path d="M25.3841 5.62439C24.6839 5.62439 24.0914 5.38127 23.6067 4.89504C23.1219 4.40881 22.8795 3.81452 22.8795 3.11218C22.8795 2.40985 23.1219 1.81556 23.6067 1.32933C24.0914 0.843092 24.6839 0.599976 25.3841 0.599976C26.0573 0.599976 26.6229 0.843092 27.0807 1.32933C27.5655 1.81556 27.8078 2.40985 27.8078 3.11218C27.8078 3.81452 27.5655 4.40881 27.0807 4.89504C26.6229 5.38127 26.0573 5.62439 25.3841 5.62439ZM27.1615 9.23062V31.4353H23.4855V9.23062H27.1615Z" fill="url(#paint1_linear_8202_528)"/>
<path d="M43.4045 8.82543C46.0975 8.82543 48.2789 9.64932 49.9486 11.2971C51.6183 12.9179 52.4532 15.268 52.4532 18.3475V31.4353H48.8175V18.8743C48.8175 16.6592 48.2654 14.9709 47.1613 13.8093C46.0571 12.6208 44.549 12.0265 42.6369 12.0265C40.6979 12.0265 39.1494 12.6343 37.9914 13.8498C36.8603 15.0654 36.2948 16.8348 36.2948 19.1579V31.4353H32.6187V9.23062H36.2948V12.3911C37.0219 11.2566 38.0049 10.3787 39.2437 9.75738C40.5094 9.13608 41.8964 8.82543 43.4045 8.82543Z" fill="url(#paint2_linear_8202_528)"/>
<path d="M56.2766 20.2924C56.2766 17.9963 56.7344 15.9974 57.65 14.2956C58.5657 12.5667 59.8314 11.2296 61.4473 10.2841C63.09 9.33867 64.9617 8.86595 67.0623 8.86595C69.7823 8.86595 72.0175 9.52777 73.768 10.8514C75.5455 12.175 76.7169 14.0119 77.2825 16.362H73.3237C72.9467 15.0114 72.2061 13.9444 71.1019 13.161C70.0247 12.3776 68.6781 11.9859 67.0623 11.9859C64.9617 11.9859 63.2651 12.7153 61.9724 14.174C60.6797 15.6057 60.0334 17.6452 60.0334 20.2924C60.0334 22.9667 60.6797 25.0332 61.9724 26.4919C63.2651 27.9506 64.9617 28.68 67.0623 28.68C68.6781 28.68 70.0247 28.3018 71.1019 27.5454C72.1791 26.7891 72.9197 25.7085 73.3237 24.3039H77.2825C76.69 26.573 75.5051 28.3963 73.7276 29.774C71.9502 31.1246 69.7284 31.8 67.0623 31.8C64.9617 31.8 63.09 31.3272 61.4473 30.3818C59.8314 29.4363 58.5657 28.0992 57.65 26.3704C56.7344 24.6415 56.2766 22.6156 56.2766 20.2924Z" fill="url(#paint3_linear_8202_528)"/>
<path d="M83.2781 5.62439C82.5779 5.62439 81.9855 5.38127 81.5007 4.89504C81.016 4.40881 80.7736 3.81452 80.7736 3.11218C80.7736 2.40985 81.016 1.81556 81.5007 1.32933C81.9855 0.843092 82.5779 0.599976 83.2781 0.599976C83.9514 0.599976 84.5169 0.843092 84.9748 1.32933C85.4595 1.81556 85.7019 2.40985 85.7019 3.11218C85.7019 3.81452 85.4595 4.40881 84.9748 4.89504C84.5169 5.38127 83.9514 5.62439 83.2781 5.62439ZM85.0555 9.23062V31.4353H81.3795V9.23062H85.0555Z" fill="url(#paint4_linear_8202_528)"/>
<path d="M89.1393 20.2519C89.1393 17.9828 89.5972 15.9974 90.5128 14.2956C91.4284 12.5667 92.6807 11.2296 94.2696 10.2841C95.8855 9.33867 97.6898 8.86595 99.6827 8.86595C101.406 8.86595 103.009 9.27114 104.49 10.0815C105.971 10.8649 107.102 11.9049 107.883 13.2015V5.16732C107.883 3.11479 109.547 1.45089 111.599 1.45089V1.45089V31.4353H107.883V27.2618C107.156 28.5854 106.079 29.6795 104.651 30.5439C103.224 31.3813 101.554 31.8 99.6423 31.8C97.6763 31.8 95.8855 31.3137 94.2696 30.3413C92.6807 29.3688 91.4284 28.0046 90.5128 26.2488C89.5972 24.493 89.1393 22.494 89.1393 20.2519ZM107.883 20.2924C107.883 18.6176 107.546 17.1589 106.873 15.9163C106.2 14.6737 105.284 13.7283 104.126 13.08C102.995 12.4046 101.743 12.067 100.369 12.067C98.9959 12.067 97.7437 12.3911 96.6126 13.0395C95.4815 13.6878 94.5793 14.6332 93.906 15.8758C93.2328 17.1184 92.8961 18.5771 92.8961 20.2519C92.8961 21.9537 93.2328 23.4394 93.906 24.7091C94.5793 25.9517 95.4815 26.9106 96.6126 27.5859C97.7437 28.2343 98.9959 28.5584 100.369 28.5584C101.743 28.5584 102.995 28.2343 104.126 27.5859C105.284 26.9106 106.2 25.9517 106.873 24.7091C107.546 23.4394 107.883 21.9672 107.883 20.2924Z" fill="url(#paint5_linear_8202_528)"/>
<path d="M137.202 19.482C137.202 20.1844 137.161 20.9272 137.081 21.7106H119.387C119.522 23.8987 120.262 25.614 121.609 26.8566C122.982 28.0722 124.639 28.68 126.578 28.68C128.166 28.68 129.486 28.3153 130.536 27.5859C131.614 26.8296 132.368 25.8301 132.799 24.5875H136.757C136.165 26.7215 134.98 28.4639 133.202 29.8145C131.425 31.1382 129.217 31.8 126.578 31.8C124.477 31.8 122.592 31.3272 120.922 30.3818C119.279 29.4363 117.987 28.0992 117.044 26.3704C116.102 24.6145 115.63 22.5885 115.63 20.2924C115.63 17.9963 116.088 15.9839 117.004 14.255C117.919 12.5262 119.199 11.2026 120.841 10.2841C122.511 9.33867 124.423 8.86595 126.578 8.86595C128.678 8.86595 130.536 9.32517 132.152 10.2436C133.768 11.1621 135.007 12.4317 135.869 14.0524C136.757 15.6462 137.202 17.4561 137.202 19.482ZM133.404 18.7122C133.404 17.3075 133.095 16.1054 132.475 15.1059C131.856 14.0795 131.008 13.3096 129.93 12.7963C128.88 12.2561 127.709 11.9859 126.416 11.9859C124.558 11.9859 122.969 12.5802 121.649 13.7688C120.357 14.9574 119.616 16.6052 119.427 18.7122H133.404Z" fill="url(#paint6_linear_8202_528)"/>
<path d="M152.032 8.82543C154.725 8.82543 156.906 9.64932 158.576 11.2971C160.246 12.9179 161.08 15.268 161.08 18.3475V31.4353H157.445V18.8743C157.445 16.6592 156.893 14.9709 155.789 13.8093C154.684 12.6208 153.176 12.0265 151.264 12.0265C149.325 12.0265 147.777 12.6343 146.619 13.8498C145.488 15.0654 144.922 16.8348 144.922 19.1579V31.4353H141.246V9.23062H144.922V12.3911C145.649 11.2566 146.632 10.3787 147.871 9.75738C149.137 9.13608 150.524 8.82543 152.032 8.82543Z" fill="url(#paint7_linear_8202_528)"/>
<path d="M170.761 12.2696V25.3574C170.761 26.4379 170.99 27.2078 171.448 27.667C171.906 28.0992 172.7 28.3153 173.831 28.3153H176.538V31.4353H173.225C171.179 31.4353 169.644 30.9626 168.62 30.0171C167.597 29.0717 167.085 27.5184 167.085 25.3574V12.2696H164.217V9.23062H167.085V3.63894H170.761V9.23062H176.538V12.2696H170.761Z" fill="url(#paint8_linear_8202_528)"/>
<path d="M188.021 31.8C186.324 31.8 184.803 31.5163 183.456 30.9491C182.109 30.3548 181.046 29.5444 180.265 28.5179C179.484 27.4644 179.053 26.2623 178.972 24.9117H182.769C182.877 26.0192 183.389 26.9241 184.304 27.6265C185.247 28.3288 186.472 28.68 187.98 28.68C189.381 28.68 190.485 28.3693 191.293 27.748C192.101 27.1267 192.505 26.3433 192.505 25.3979C192.505 24.4254 192.074 23.7096 191.212 23.2504C190.35 22.7641 189.017 22.2914 187.213 21.8322C185.57 21.4 184.224 20.9678 183.173 20.5356C182.15 20.0763 181.261 19.4145 180.507 18.5501C179.78 17.6587 179.416 16.4971 179.416 15.0654C179.416 13.9309 179.753 12.8909 180.426 11.9454C181.1 11 182.056 10.2571 183.294 9.71686C184.533 9.14958 185.947 8.86595 187.536 8.86595C189.987 8.86595 191.966 9.48725 193.474 10.7298C194.982 11.9724 195.79 13.6743 195.898 15.8353H192.222C192.141 14.6737 191.67 13.7418 190.808 13.0395C189.973 12.3371 188.842 11.9859 187.415 11.9859C186.095 11.9859 185.045 12.2696 184.264 12.8369C183.483 13.4041 183.092 14.147 183.092 15.0654C183.092 15.7948 183.321 16.4026 183.779 16.8888C184.264 17.348 184.856 17.7262 185.557 18.0233C186.284 18.2935 187.28 18.6041 188.546 18.9553C190.135 19.3875 191.427 19.8197 192.424 20.2519C193.42 20.6571 194.269 21.2784 194.969 22.1158C195.696 22.9532 196.073 24.0472 196.1 25.3979C196.1 26.6135 195.763 27.7075 195.09 28.68C194.417 29.6524 193.461 30.4223 192.222 30.9896C191.01 31.5298 189.61 31.8 188.021 31.8Z" fill="url(#paint9_linear_8202_528)"/>
<defs>
<linearGradient id="paint0_linear_8202_528" x1="0.900024" y1="31.8" x2="196.1" y2="31.8" gradientUnits="userSpaceOnUse">
<stop stop-color="#6464FF"/>
<stop offset="1" stop-color="#F27887"/>
</linearGradient>
<linearGradient id="paint1_linear_8202_528" x1="0.900024" y1="31.8" x2="196.1" y2="31.8" gradientUnits="userSpaceOnUse">
<stop stop-color="#6464FF"/>
<stop offset="1" stop-color="#F27887"/>
</linearGradient>
<linearGradient id="paint2_linear_8202_528" x1="0.900024" y1="31.8" x2="196.1" y2="31.8" gradientUnits="userSpaceOnUse">
<stop stop-color="#6464FF"/>
<stop offset="1" stop-color="#F27887"/>
</linearGradient>
<linearGradient id="paint3_linear_8202_528" x1="0.900024" y1="31.8" x2="196.1" y2="31.8" gradientUnits="userSpaceOnUse">
<stop stop-color="#6464FF"/>
<stop offset="1" stop-color="#F27887"/>
</linearGradient>
<linearGradient id="paint4_linear_8202_528" x1="0.900024" y1="31.8" x2="196.1" y2="31.8" gradientUnits="userSpaceOnUse">
<stop stop-color="#6464FF"/>
<stop offset="1" stop-color="#F27887"/>
</linearGradient>
<linearGradient id="paint5_linear_8202_528" x1="0.900024" y1="31.8" x2="196.1" y2="31.8" gradientUnits="userSpaceOnUse">
<stop stop-color="#6464FF"/>
<stop offset="1" stop-color="#F27887"/>
</linearGradient>
<linearGradient id="paint6_linear_8202_528" x1="0.900024" y1="31.8" x2="196.1" y2="31.8" gradientUnits="userSpaceOnUse">
<stop stop-color="#6464FF"/>
<stop offset="1" stop-color="#F27887"/>
</linearGradient>
<linearGradient id="paint7_linear_8202_528" x1="0.900024" y1="31.8" x2="196.1" y2="31.8" gradientUnits="userSpaceOnUse">
<stop stop-color="#6464FF"/>
<stop offset="1" stop-color="#F27887"/>
</linearGradient>
<linearGradient id="paint8_linear_8202_528" x1="0.900024" y1="31.8" x2="196.1" y2="31.8" gradientUnits="userSpaceOnUse">
<stop stop-color="#6464FF"/>
<stop offset="1" stop-color="#F27887"/>
</linearGradient>
<linearGradient id="paint9_linear_8202_528" x1="0.900024" y1="31.8" x2="196.1" y2="31.8" gradientUnits="userSpaceOnUse">
<stop stop-color="#6464FF"/>
<stop offset="1" stop-color="#F27887"/>
</linearGradient>
</defs>
</svg>
