<svg width="73" height="88" viewBox="0 0 73 88" fill="none" xmlns="http://www.w3.org/2000/svg">
<path fill-rule="evenodd" clip-rule="evenodd" d="M36.5 17.7479C26.4227 17.7479 18.2534 25.9146 18.2534 35.9888C18.2534 40.9091 19.7811 45.0052 23.5276 50.2908C26.5728 54.5869 30.6004 59.0454 35.9378 64.954C36.1236 65.1597 36.311 65.3671 36.5 65.5763C36.689 65.3671 36.8764 65.1597 37.0622 64.954C42.3996 59.0454 46.4272 54.5869 49.4724 50.2908C53.2189 45.0052 54.7466 40.9091 54.7466 35.9888C54.7466 25.9146 46.5773 17.7479 36.5 17.7479ZM0.5 35.9888C0.5 16.1127 16.6177 0 36.5 0C56.3822 0 72.5 16.1127 72.5 35.9888C72.5 45.6492 69.1187 53.2708 63.9578 60.5519C60.2503 65.7824 55.2249 71.3413 49.6476 77.5106C47.9567 79.3811 46.215 81.3077 44.444 83.2982C44.0178 83.7772 43.5876 84.2622 43.1536 84.7536C41.4686 86.661 39.0455 87.7535 36.5 87.7535C33.9545 87.7535 31.5314 86.661 29.8464 84.7536C29.4124 84.2622 28.9822 83.7772 28.556 83.2982C26.785 81.3076 25.0433 79.3811 23.3523 77.5106C17.775 71.3413 12.7496 65.7824 9.04219 60.5519C3.88123 53.2708 0.5 45.6492 0.5 35.9888Z" fill="url(#paint0_angular_8202_525)"/>
<path d="M44.3906 80.112C44.3906 84.4684 40.8579 87.9999 36.5002 87.9999C32.1424 87.9999 28.6097 84.4684 28.6097 80.112C28.6097 77.154 29.1029 73.4565 36.5002 65.5685C43.8974 73.4565 44.3906 76.661 44.3906 80.112Z" fill="#7B49CC"/>
<defs>
<radialGradient id="paint0_angular_8202_525" cx="0" cy="0" r="1" gradientUnits="userSpaceOnUse" gradientTransform="translate(36.5 38.8404) rotate(90) scale(47.5937 45.6635)">
<stop offset="0.00927812" stop-color="#6675FF"/>
<stop offset="0.991753" stop-color="#F27887"/>
</radialGradient>
</defs>
</svg>
