<svg width="40" height="41" viewBox="0 0 40 41" fill="none" xmlns="http://www.w3.org/2000/svg">
<circle cx="20.0001" cy="20.8331" r="16.9482" stroke="#3C3C3C" stroke-width="3.99844"/>
<circle cx="20.104" cy="20.833" r="14.7368" fill="#525252"/>
<path fill-rule="evenodd" clip-rule="evenodd" d="M8.72168 30.8906C10.2532 30.1786 12.7806 29.0409 13.5003 28.861C14.3003 28.661 15.6669 28.2777 16.2503 28.111C16.0003 27.5277 15.3503 26.211 14.7503 25.611C14.0003 24.861 13.7503 22.611 13.7503 21.361C13.7503 20.111 13.5003 17.861 13.2503 16.611C13.0003 15.361 13.0003 12.861 13.7503 12.111C14.3503 11.511 14.8336 11.361 15.0003 11.361L14.5003 10.361C14.8336 10.4443 15.6003 10.561 16.0003 10.361C16.1322 10.2951 16.2814 10.1422 16.4619 9.95734C16.9655 9.44146 17.7119 8.67694 19.0003 8.861C20.2144 9.03444 21.7894 9.80956 22.8907 10.3515C23.3768 10.5907 23.7706 10.7845 24.0003 10.8611C24.1878 10.9236 24.3909 10.9861 24.594 11.0486C25.2034 11.2361 25.8128 11.4236 26.0003 11.6111C26.1081 11.7189 26.1695 12.013 26.2445 12.3727C26.3434 12.8466 26.466 13.4347 26.7503 13.8611C27.2503 14.6111 27.2503 16.6111 27.2503 17.1111C27.2503 17.5111 26.917 18.2778 26.7503 18.6111C27.0003 18.7778 27.4503 19.2611 27.2503 19.8611C27.1407 20.1899 26.983 20.4707 26.8405 20.7245C26.658 21.0495 26.5003 21.3303 26.5003 21.6111C26.5003 22.1111 26.2503 22.6111 26.0003 22.6111C25.7503 22.6111 25.5003 22.6111 25.2503 22.3611C25.1149 22.2257 25.0529 22.8231 24.9847 23.4789C24.927 24.0344 24.8649 24.6318 24.7503 24.8611C24.6548 25.0521 24.5593 25.2066 24.4777 25.3385C24.3458 25.5521 24.2503 25.7066 24.2503 25.8611C24.2503 25.9861 24.3128 26.3611 24.3753 26.7361C24.4378 27.1111 24.5003 27.4861 24.5003 27.6111C24.5003 27.8611 25.0003 28.3611 25.5003 28.3611C25.9199 28.3611 29.861 30.2979 31.1174 31.0685C28.3729 34.0972 24.4081 35.9996 19.9989 35.9996C15.504 35.9996 11.4709 34.0226 8.72168 30.8906Z" fill="#7A7A7A"/>
</svg>
