<svg width="32" height="38" viewBox="0 0 32 38" fill="none" xmlns="http://www.w3.org/2000/svg">
<path d="M18.028 35.1015L18.7723 35.7693L18.028 35.1015C17.5175 35.6705 16.7795 36 16 36C15.2205 36 14.4825 35.6705 13.972 35.1015L13.2277 35.7693L13.972 35.1015C13.7903 34.899 13.6103 34.6991 13.4319 34.5018C12.6913 33.6822 11.9634 32.8894 11.2596 32.1229L11.2584 32.1216C8.92207 29.5772 6.87355 27.3439 5.37081 25.2566C3.30083 22.3813 2 19.4553 2 15.764C2 8.17726 8.25301 2 16 2C23.747 2 30 8.17726 30 15.764C30 19.4553 28.6992 22.3813 26.6292 25.2566C25.1264 27.3439 23.0779 29.5772 20.7416 32.1216L20.7416 32.1217C20.0374 32.8886 19.3091 33.6818 18.5681 34.5018C18.3897 34.6991 18.2097 34.899 18.028 35.1015Z" fill="#2D2E32" stroke="#5B5D67" stroke-width="2"/>
<path fill-rule="evenodd" clip-rule="evenodd" d="M9 12.2136V16.0772C9 20.0762 11.9316 23.8181 15.8887 24.7783C15.9617 24.796 16.0383 24.796 16.1113 24.7783C20.0684 23.8181 23 20.0762 23 16.0772V12.2136C23 11.9374 22.7772 11.7099 22.5022 11.6853C21.3964 11.5863 18.6522 11.1405 16.3571 9.13338C16.1538 8.95554 15.8462 8.95554 15.6429 9.13338C13.3478 11.1405 10.6036 11.5863 9.49783 11.6853C9.22279 11.7099 9 11.9374 9 12.2136ZM16.4755 12.268C16.3259 11.8074 15.6741 11.8074 15.5245 12.268L14.7652 14.6049C14.6982 14.8109 14.5063 14.9504 14.2896 14.9504H11.8325C11.3481 14.9504 11.1468 15.5702 11.5386 15.8549L13.5265 17.2992C13.7017 17.4265 13.7751 17.6522 13.7081 17.8582L12.9488 20.1951C12.7991 20.6557 13.3264 21.0388 13.7182 20.7541L15.7061 19.3098C15.8814 19.1825 16.1186 19.1825 16.2939 19.3098L18.2818 20.7541C18.6736 21.0388 19.2009 20.6557 19.0512 20.1951L18.2919 17.8582C18.2249 17.6522 18.2983 17.4265 18.4735 17.2992L20.4614 15.8549C20.8532 15.5702 20.6519 14.9504 20.1675 14.9504H17.7104C17.4937 14.9504 17.3018 14.8109 17.2348 14.6049L16.4755 12.268Z" fill="#F7F7FC"/>
</svg>
