<svg width="375" height="223" viewBox="0 0 375 223" fill="none" xmlns="http://www.w3.org/2000/svg">
<circle cx="188" cy="112" r="83.2105" stroke="url(#paint0_linear_1619_15286)" stroke-width="6"/>
<g filter="url(#filter0_f_1619_15286)">
<circle cx="188" cy="112" r="88" stroke="url(#paint1_linear_1619_15286)" stroke-width="6"/>
</g>
<g filter="url(#filter1_d_1619_15286)">
<rect x="80" y="84" width="215" height="56" rx="28" fill="#2D2E32"/>
</g>
<circle cx="188" cy="112" r="32" fill="#151519"/>
<g filter="url(#filter2_f_1619_15286)">
<circle cx="188" cy="112" r="23" stroke="url(#paint2_linear_1619_15286)" stroke-width="6"/>
</g>
<circle cx="188" cy="112" r="24" fill="#2D2E32" stroke="url(#paint3_linear_1619_15286)" stroke-width="4"/>
<path fill-rule="evenodd" clip-rule="evenodd" d="M190.005 123.518C190.227 123.072 190.492 122.44 190.972 122.305C195.604 121.006 199.001 116.745 199.001 111.689C199.001 105.602 194.076 100.667 188.001 100.667C181.925 100.667 177 105.602 177 111.689C177 116.745 180.398 121.006 185.03 122.305C185.51 122.44 185.775 123.072 185.997 123.518L187.076 125.68C187.457 126.443 188.545 126.443 188.926 125.68L190.005 123.518Z" fill="#F7F7FC"/>
<path d="M196.25 111.689C196.25 116.255 192.556 119.956 188 119.956C183.443 119.956 179.75 116.255 179.75 111.689C179.75 107.123 183.443 103.422 188 103.422C192.556 103.422 196.25 107.123 196.25 111.689Z" fill="#2D2E32"/>
<g clip-path="url(#clip0_1619_15286)">
<path d="M192.126 112.379H188.688V115.823C188.688 116.202 188.379 116.512 188.001 116.512C187.623 116.512 187.313 116.202 187.313 115.823V112.379H183.876C183.498 112.379 183.188 112.069 183.188 111.69C183.188 111.311 183.498 111.001 183.876 111.001H187.313V107.556C187.313 107.177 187.623 106.867 188.001 106.867C188.379 106.867 188.688 107.177 188.688 107.556V111.001H192.126C192.504 111.001 192.813 111.311 192.813 111.69C192.813 112.069 192.504 112.379 192.126 112.379Z" fill="#F7F7FC"/>
</g>
<circle cx="273.75" cy="12.25" r="12.25" transform="rotate(180 273.75 12.25)" fill="#1A1B24" fill-opacity="0.2"/>
<defs>
<filter id="filter0_f_1619_15286" x="77" y="1" width="222" height="222" filterUnits="userSpaceOnUse" color-interpolation-filters="sRGB">
<feFlood flood-opacity="0" result="BackgroundImageFix"/>
<feBlend mode="normal" in="SourceGraphic" in2="BackgroundImageFix" result="shape"/>
<feGaussianBlur stdDeviation="10" result="effect1_foregroundBlur_1619_15286"/>
</filter>
<filter id="filter1_d_1619_15286" x="0" y="4" width="375" height="216" filterUnits="userSpaceOnUse" color-interpolation-filters="sRGB">
<feFlood flood-opacity="0" result="BackgroundImageFix"/>
<feColorMatrix in="SourceAlpha" type="matrix" values="0 0 0 0 0 0 0 0 0 0 0 0 0 0 0 0 0 0 127 0" result="hardAlpha"/>
<feMorphology radius="40" operator="dilate" in="SourceAlpha" result="effect1_dropShadow_1619_15286"/>
<feOffset/>
<feGaussianBlur stdDeviation="20"/>
<feComposite in2="hardAlpha" operator="out"/>
<feColorMatrix type="matrix" values="0 0 0 0 0.0823529 0 0 0 0 0.0823529 0 0 0 0 0.0980392 0 0 0 1 0"/>
<feBlend mode="normal" in2="BackgroundImageFix" result="effect1_dropShadow_1619_15286"/>
<feBlend mode="normal" in="SourceGraphic" in2="effect1_dropShadow_1619_15286" result="shape"/>
</filter>
<filter id="filter2_f_1619_15286" x="142" y="66" width="92" height="92" filterUnits="userSpaceOnUse" color-interpolation-filters="sRGB">
<feFlood flood-opacity="0" result="BackgroundImageFix"/>
<feBlend mode="normal" in="SourceGraphic" in2="BackgroundImageFix" result="shape"/>
<feGaussianBlur stdDeviation="10" result="effect1_foregroundBlur_1619_15286"/>
</filter>
<linearGradient id="paint0_linear_1619_15286" x1="101.79" y1="198.211" x2="274.211" y2="198.211" gradientUnits="userSpaceOnUse">
<stop stop-color="#6464FF"/>
<stop offset="1" stop-color="#F27887"/>
</linearGradient>
<linearGradient id="paint1_linear_1619_15286" x1="97" y1="203" x2="279" y2="203" gradientUnits="userSpaceOnUse">
<stop stop-color="#6464FF"/>
<stop offset="1" stop-color="#F27887"/>
</linearGradient>
<linearGradient id="paint2_linear_1619_15286" x1="162" y1="138" x2="214" y2="138" gradientUnits="userSpaceOnUse">
<stop stop-color="#6464FF"/>
<stop offset="1" stop-color="#F27887"/>
</linearGradient>
<linearGradient id="paint3_linear_1619_15286" x1="162" y1="138" x2="214" y2="138" gradientUnits="userSpaceOnUse">
<stop stop-color="#6464FF"/>
<stop offset="1" stop-color="#F27887"/>
</linearGradient>
<clipPath id="clip0_1619_15286">
<rect width="16.5004" height="16.534" fill="white" transform="translate(179.751 103.422)"/>
</clipPath>
</defs>
</svg>
