<svg width="20" height="22" viewBox="0 0 20 22" fill="none" xmlns="http://www.w3.org/2000/svg">
<path fill-rule="evenodd" clip-rule="evenodd" d="M10.0003 5.03364C7.66762 5.03364 5.77658 6.88973 5.77658 9.17933C5.77658 10.2976 6.13022 11.2285 6.99746 12.4298C7.70235 13.4062 8.63467 14.4195 9.8702 15.7624C9.9132 15.8091 9.95658 15.8563 10.0003 15.9038C10.0441 15.8563 10.0874 15.8091 10.1305 15.7624C11.366 14.4195 12.2983 13.4062 13.0032 12.4298C13.8704 11.2285 14.2241 10.2976 14.2241 9.17933C14.2241 6.88973 12.333 5.03364 10.0003 5.03364ZM1.66699 9.17933C1.66699 4.66201 5.39795 1 10.0003 1C14.6027 1 18.3337 4.66201 18.3337 9.17933C18.3337 11.3749 17.551 13.1071 16.3563 14.7619C15.4981 15.9506 14.3348 17.214 13.0438 18.6162C12.6523 19.0413 12.2492 19.4791 11.8392 19.9315C11.7405 20.0404 11.641 20.1506 11.5405 20.2623C11.1505 20.6958 10.5896 20.9441 10.0003 20.9441C9.41108 20.9441 8.85019 20.6958 8.46015 20.2623C8.35967 20.1506 8.2601 20.0404 8.16144 19.9315C7.75148 19.4791 7.34831 19.0413 6.95689 18.6162C5.66585 17.214 4.50256 15.9506 3.64435 14.7619C2.44969 13.1071 1.66699 11.3749 1.66699 9.17933Z" stroke="#A3A4A9" stroke-width="2" stroke-linecap="round" stroke-linejoin="round"/>
</svg>
