<svg width="30" height="36" viewBox="0 0 30 36" fill="none" xmlns="http://www.w3.org/2000/svg">
<path fill-rule="evenodd" clip-rule="evenodd" d="M15 7.26055C10.8011 7.26055 7.39726 10.6015 7.39726 14.7228C7.39726 16.7357 8.0338 18.4114 9.59484 20.5736C10.8637 22.3311 12.5418 24.1551 14.7658 26.5723C14.8432 26.6564 14.9213 26.7413 15 26.8269C15.0787 26.7413 15.1568 26.6564 15.2342 26.5723C17.4582 24.1551 19.1364 22.3311 20.4052 20.5736C21.9662 18.4114 22.6027 16.7357 22.6027 14.7228C22.6027 10.6015 19.1989 7.26055 15 7.26055ZM0 14.7228C0 6.59162 6.71573 0 15 0C23.2843 0 30 6.59162 30 14.7228C30 18.6748 28.5912 21.7928 26.4408 24.7714C24.896 26.9112 22.8021 29.1853 20.4782 31.7091C19.7736 32.4743 19.0479 33.2624 18.31 34.0768C18.1324 34.2727 17.9532 34.4711 17.7723 34.6722C17.0702 35.4525 16.0606 35.8994 15 35.8994C13.9394 35.8994 12.9298 35.4525 12.2277 34.6722C12.0468 34.4711 11.8676 34.2727 11.69 34.0768C10.9521 33.2624 10.2264 32.4743 9.52181 31.7091C7.19794 29.1853 5.10402 26.9112 3.55925 24.7714C1.40885 21.7928 0 18.6748 0 14.7228Z" fill="url(#paint0_angular_6536_5152)"/>
<path d="M18.2873 32.7729C18.2873 34.555 16.8153 35.9998 14.9996 35.9998C13.1839 35.9998 11.7119 34.555 11.7119 32.7729C11.7119 31.5628 11.9174 30.0502 14.9996 26.8232C18.0818 30.0502 18.2873 31.3611 18.2873 32.7729Z" fill="#7B49CC"/>
<defs>
<radialGradient id="paint0_angular_6536_5152" cx="0" cy="0" r="1" gradientUnits="userSpaceOnUse" gradientTransform="translate(15 15.8893) rotate(90) scale(19.4703 19.0265)">
<stop offset="0.00927812" stop-color="#6675FF"/>
<stop offset="0.991753" stop-color="#F27887"/>
</radialGradient>
</defs>
</svg>
